<?xml version="1.0" encoding="UTF-8"?>
<svg width="594mm" height="420mm" version="1.1" viewBox="0 0 594 420" xml:space="preserve" xmlns="http://www.w3.org/2000/svg"><g transform="matrix(.35277 0 0 .35277 250.81 67.839)" clip-path="url(#clipPath316)" stroke-width="7.3421"><path d="m89.924 310.88c0-32.724 25.102-59.258 56.064-59.258 30.961 0 56.064 26.534 56.064 59.258 0 32.724-25.102 59.25-56.064 59.25-30.962 0-56.064-26.527-56.064-59.25zm56.064 35.264c13.847 0 25.058-15.785 25.058-35.264 0-19.486-11.211-35.279-25.058-35.279-13.847 0-25.066 15.793-25.066 35.279 0 19.479 11.219 35.264 25.066 35.264z" fill="#0065ff"/><path d="m161.91 240.15v-19.816h-31.931v19.816h-41.622v22.746h115.17v-22.746z" fill="#0065ff"/><path d="m254.96 227.55h-31.931v184.94h31.931v-105.55h28.641v-22.746h-28.641z" fill="#0065ff"/><path d="m449.65 227.55v56.394h-11.483v-56.394h-30.499v184.94h30.499v-104.02h11.483v104.02h30.499v-184.94z" fill="#0065ff"/><path d="m344.77 258.63h48.23v-22.738h-80.183v109.5c0 11.468 9.2289 20.77 20.705 20.77h85.469v-22.753h-74.221z" fill="#0065ff"/><path d="m-69.024 341.63v48.076h117.91v22.79h-129.16c-11.476 0-20.705-9.3395-20.705-20.815v-50.051z" fill="#0065ff"/><path d="m16.952 227.55h31.931v123.44h-31.931z" fill="#0065ff"/><path d="m-123.47 276.69c0-27.503 24.904-49.801 55.631-49.801 30.719 0 55.623 22.298 55.623 49.801 0 27.511-24.904 49.816-55.623 49.816-30.727 0-55.631-22.305-55.631-49.816zm55.631 25.639c13.737 0 24.882-11.476 24.882-25.639 0-14.148-11.145-25.631-24.882-25.631-13.752 0-24.89 11.483-24.89 25.631 0 14.163 11.138 25.639 24.89 25.639z" fill="#0065ff"/><path d="m516.44 286.68c0-23.664 23.34-42.856 52.129-42.856 28.788 0 52.136 19.192 52.136 42.856 0 23.671-23.348 42.863-52.136 42.863-28.788 0-52.129-19.192-52.129-42.863zm52.129 21.461c11.777 0 21.314-9.6035 21.314-21.461 0-11.85-9.5373-21.446-21.314-21.446-11.769 0-21.299 9.5962-21.299 21.446 0 11.857 9.53 21.461 21.299 21.461z" fill="#0065ff"/><path d="m584.54 240.32v-19.809h-31.938v19.809h-40.176v22.76h112.3v-22.76z" fill="#0065ff"/><path d="m680.93 227.55h-31.938v104.02h31.938v-45.792h28.634v-22.753h-28.634z" fill="#0065ff"/><path d="m533.91 341.63v22.753h115.09v48.113h31.938v-70.866z" fill="#0065ff"/><path d="m837 376.9v-68.479h-31.96v68.487l-84.037 7e-3v22.746h186.58v-22.782z" fill="#0065ff"/><path d="m787.62 385.86v-77.444h-31.953v77.451" fill="#0065ff"/><path d="m870.15 235.89h-131.71v22.738h119.98v121.64h31.901v-124.7c0-11.057-9.1042-19.677-20.169-19.677z" fill="#0065ff"/><path d="m-92.46 459.92h-10.352v-2.7385h33.223v2.7385h-10.352v73.2h10.352v2.7313h-33.223v-2.7313h10.352z" fill="#0065ff"/><path d="m-48.833 459.92h-10.132v-2.7385h25.235l39.038 56.034h0.22021v-53.296h-11.909v-2.7385h25.345v2.7385h-10.132v76.68l-2.0925 0.54334-52.048-74.654h-0.22025v70.631h12.129v2.7314h-25.565v-2.7314h10.132z" fill="#0065ff"/><path d="m85.798 459.92h-9.9412v-2.7385h32.804v2.7385h-10.352v73.2h10.352v2.7313h-32.804v-2.7313h9.9412v-36.387h-34.236v36.387h9.9411v2.7313h-32.797v-2.7313h10.345v-73.2h-10.345v-2.7385h32.797v2.7385h-9.9411v34.082h34.236z" fill="#0065ff"/><path d="m153.55 504.94h-18.399l9.4713-28.091h0.22755zm-31.284 28.178h-9.251v2.7313h24.559v-2.7313h-11.564l8.0396-24.75h20.492l7.4889 24.75h-11.454v2.7313h35.47v-2.7313h-10.139l-25.44-77.231h-2.2099z" fill="#0065ff"/><path d="m227.21 459.92h-10.132v-2.7385h33.517v2.7385h-10.874v52.297c0 14.2 3.0763 20.91 20.873 20.91 20.763 0 22.848-8.5829 22.848-21.799v-51.409h-11.865v-2.7385h24.42v2.7385h-9.251v52.62c0 15.081-3.7444 24.016-29.559 24.016-26.468 0-29.978-8.1572-29.978-22.914z" fill="#0065ff"/><path d="m316.76 459.92h-10.132v-2.7385h25.235l39.038 56.034h0.2203v-53.296h-11.909v-2.7385h25.345v2.7385h-10.132v76.68l-2.0925 0.54334-52.048-74.654h-0.22028v70.631h12.129v2.7314h-25.565v-2.7314h10.132z" fill="#0065ff"/><path d="m405.52 459.92h-10.352v-2.7385h33.223v2.7385h-10.352v73.2h10.352v2.7313h-33.223v-2.7313h10.352z" fill="#0065ff"/><path d="m441.29 459.92h-9.0308v-2.7385h33.458v2.7385h-11.336l18.377 57.863h0.2203l19.478-57.863h-11.336v-2.7385h23.333v2.7385h-8.1497l-26.85 77.224h-2.4229z" fill="#0065ff"/><path d="m518.66 459.92h-10.352v-2.7385h63.017l0.6681 24.148h-2.8707c-3.4141-19.442-7.4816-21.41-32.643-21.41h-5.3084v34.089h5.9765c12.819 0 13.693-4.7358 13.583-16.674h3.3039v37.518h-3.3039c-0.1028-13.752-0.7636-17.415-13.583-17.415h-5.9765v35.682h16.689c16.865 0 22.371-8.4727 24.684-24.162h2.9662l-0.9838 26.894h-66.218v-2.7313h10.352z" fill="#0065ff"/><path d="m609.21 459.92h5.7195c11.241 0 14.985 6.0573 14.985 16.285 0 9.0306-3.1938 16.512-12.988 16.512h-7.7165zm-12.511 73.2h-10.352v2.7313h32.782v-2.7313h-9.9191v-36.975h6.9383c14.053 0 16.483 4.7358 17.364 19.038 0.9912 15.514 1.9823 20.668 15.374 20.668h8.0396v-2.7313h-2.7459c-6.7253 0-7.6064-5.7194-8.157-17.393-0.8738-17.379-5.815-19.582-22.305-21.571v-0.2203c10.587-1.3216 18.722-5.0661 18.722-17.834 0-15.962-9.8824-18.92-23.862-18.92h-32.232v2.7385h10.352z" fill="#0065ff"/><path d="m661.86 509.92h3.025c0.7782 12.665 10.022 23.788 22.841 23.788 9.1262 0 18.142-4.721 18.142-15.272 0-21.211-42.687-13.619-42.687-40.763 0-13.95 11.894-21.769 24.875-21.769 6.483 0 14.405 1.9897 20.345 4.743l0.6608 17.246-2.9 0.0514c-2.6432-12.555-9.0308-18.627-19.324-18.627-7.6871 0-15.058 4.1926-15.058 12.893 0 19.713 42.004 11.556 42.004 41.013 0 15.088-13.854 23.906-27.525 23.906-8.1497 0-15.418-1.2113-23.627-4.9633z" fill="#0065ff"/><path d="m732.53 459.92h-10.36v-2.7385h33.216v2.7385h-10.352v73.2h10.352v2.7313h-33.216v-2.7313h10.36z" fill="#0065ff"/><path d="m792.53 460.62h-9.4787c-11.351 0-15.536 11.541-15.976 21.784h-3.3039v-25.213h70.028v25.213h-3.2965c-0.4405-10.242-4.743-21.784-15.984-21.784h-9.4786v72.495h12.129v2.7313h-36.754v-2.7313h12.114z" fill="#0065ff"/><path d="m865.83 496.3-20.558-36.387h-9.207v-2.7385h35.044v2.7385h-11.432l17.349 32.209 16.424-32.209h-11.219v-2.7385h23.282v2.7385h-8.5976l-18.575 36.167v37.033h10.154v2.7313h-33.105v-2.7313h10.44z" fill="#0065ff"/><path d="m-431.3 161.53c-121.61 0-220.2 98.589-220.2 220.2 0 121.61 98.589 220.2 220.2 220.2 121.61 0 220.21-98.582 220.21-220.2 0-121.61-98.597-220.2-220.21-220.2zm0 434.5c-118.35 0-214.3-95.954-214.3-214.3 0-118.35 95.953-214.3 214.3-214.3 118.35 0 214.3 95.946 214.3 214.3 0 118.35-95.946 214.3-214.3 214.3z"/><path d="m-431.3 241.36c-77.517 0-140.36 62.841-140.36 140.37 0 77.518 62.841 140.36 140.36 140.36s140.37-62.841 140.37-140.36c0-77.525-62.855-140.37-140.37-140.37zm8e-3 277.44c-75.711 0-137.08-61.372-137.08-137.08 0-75.711 61.372-137.08 137.08-137.08 75.704 0 137.08 61.372 137.08 137.08 0 75.704-61.372 137.08-137.08 137.08z"/><path d="m-609.93 388.83c4.6475 0 8.4067-3.7665 8.4067-8.414 0-4.6404-3.7591-8.3994-8.4067-8.3994-4.6402 0-8.4067 3.759-8.4067 8.3994 0 4.6475 3.7665 8.414 8.4067 8.414z"/><path d="m-248.61 388.83c4.6475 0 8.4066-3.7665 8.4066-8.414 0-4.6404-3.7591-8.3994-8.4066-8.3994-4.6402 0-8.4067 3.759-8.4067 8.3994 0 4.6475 3.7665 8.414 8.4067 8.414z"/><path d="m-588.32 418.7-1.0719-4.2362 1.116-0.28636 3.4361 13.59-1.1233 0.27899-1.0646-4.2361-29.926 7.5769 1.0719 4.2366-1.1233 0.279-3.4361-13.583 1.1234-0.28637 1.0719 4.2362z"/><path d="m-583.01 436.99-1.7401-3.8986 1.0572-0.46992 4.3171 9.7284-14.926 24.625 0.0367 0.0881 20.543-9.1112-2.0338-4.596 1.0573-0.46988 4.3245 9.7723-1.0499 0.47725-1.7327-3.9135-29.559 13.113-0.56534-0.71951 19.875-32.819-0.0367-0.0881-27.224 12.071 2.0704 4.6766-1.0499 0.46989-4.3759-9.8529 1.0573-0.46992 1.7327 3.9058z"/><path d="m-555.52 485.13-2.5404-3.3403 0.91775-0.69747 8.3773 11.006-0.91776 0.7048-2.6431-3.48-24.559 18.7 2.6432 3.4726-0.91776 0.70481-8.3773-11.005 0.91777-0.70488 2.533 3.3332 12.21-9.295-8.7444-11.483-12.202 9.2954 2.5404 3.3403-0.91776 0.69014-8.3846-11.006 0.91775-0.69014 2.6432 3.4653 24.559-18.7-2.6358-3.4654 0.91776-0.7048 8.3773 11.006-0.91776 0.69747-2.5404-3.3259-11.439 8.7002 8.7444 11.49z"/><path d="m-548.97 518.35-5.8002-5.1467 10.859-6.1967 0.0734 0.0587zm-17.746 0.12482-2.9221-2.5919-0.76358 0.85899 7.7385 6.8796 0.76358-0.85904-3.6417-3.2377 9.4713-5.551 6.4537 5.7419-4.5741 9.8968-3.6123-3.2085-0.76357 0.85897 11.182 9.9412 0.76358-0.8591-3.1938-2.8411 13.62-31.468-0.6975-0.61673z"/><path d="m-509.51 523.47-3.8913-1.7697 0.48459-1.05 12.863 5.8664-0.48459 1.0428-4.1703-1.8942-9.1409 20.066c-2.489 5.4478-2.4816 8.5609 4.3538 11.674 7.9661 3.6266 10.264 0.69747 12.577-4.3689l8.9867-19.728-4.5521-2.0774 0.47723-1.05 9.3758 4.2657-0.48457 1.05-3.5462-1.6156-9.1996 20.198c-2.6358 5.7852-5.6387 8.5605-15.543 4.038-10.161-4.6184-10.073-8.3628-7.4962-14.031z"/><path d="m-473 538.18-4.1923-0.82232 0.22026-1.1306 10.44 2.0336 11.652 26.329 0.0881 0.022 4.2951-22.063-4.9339-0.96161 0.22026-1.1235 10.492 2.0413-0.22026 1.1306-4.1923-0.82232-6.1747 31.747-0.91042 0.0584-15.536-35.095-0.0881-0.0144-5.6901 29.236 5.022 0.97693-0.22027 1.1306-10.58-2.056 0.22027-1.1378 4.1923 0.81468z"/><path d="m-433.81 543.81-4.3685 0.0144v-1.1526l14.009-0.0296v1.153l-4.3685 8e-3 0.0587 30.866 4.3612-8e-3 8e-3 1.1602-14.009 0.022v-1.1526l4.3612-0.0144z"/><path d="m-416.01 542.81-3.7591 0.6094-0.18355-1.1377 13.921-2.2689 0.1909 1.1307-4.721 0.76353 11.586 22.841 0.0881-0.0144 4.1703-25.404-4.7136 0.76354-0.19087-1.1378 9.7136-1.5859 0.18353 1.1454-3.3847 0.55069-5.925 33.965-1.0059 0.16885z"/><path d="m-381.38 535.74-4.0602 1.6006-0.42584-1.0719 24.721-9.7503 4.0014 9.3614-1.1233 0.45519c-4.3538-7.1001-6.2554-7.2471-16.131-3.3483l-2.0778 0.8151 5.2789 13.37 2.3421-0.91774c5.0293-1.9821 4.6402-3.9865 2.7533-8.6488l1.2922-0.51397 5.8076 14.721-1.2922 0.51391c-2.1732-5.382-2.9956-6.7182-8.0322-4.7281l-2.3421 0.92489 5.5286 13.994 6.5418-2.5843c6.6152-2.6068 7.4595-6.7842 5.9397-13.297l1.1674-0.46255 3.7738 10.705-25.969 10.25-0.42587-1.072 4.0602-1.6007z"/><path d="m-344.92 517.95 2.0117-1.3363c3.9574-2.6063 6.6813-1.3435 9.0528 2.2612 2.0998 3.1717 2.7166 6.5493-0.74155 8.8325l-2.7092 1.7844zm12.584 28.67-3.6417 2.4011 0.6314 0.96167 11.549-7.6136-0.63875-0.95452-3.4948 2.3056-8.5829-13.025 2.4449-1.6084c4.9486-3.2669 6.9016-2.1658 10.536 2.6726 3.95 5.2279 5.4919 6.8137 10.205 3.7078l2.834-1.8723-0.63872-0.96167-0.96918 0.64612c-2.3642 1.5563-4.0014-0.26434-6.9015-4.2366-4.3465-5.9174-6.6005-5.5433-12.863-2.4154l-0.0514-0.0734c3.4214-2.9294 5.4038-6.1308 2.4449-10.624-3.7077-5.6164-7.8707-4.3683-12.79-1.1231l-11.351 7.4887 0.63877 0.95446 3.6417-2.4005z"/><path d="m-310.77 519.55 0.91042-0.9034c3.9794 3.5756 10.051 4.1707 13.899 0.37444 2.7459-2.7017 4.0455-6.7989 0.91773-9.9632-6.2775-6.3583-16.843 8.5682-24.89 0.42585-4.1336-4.185-2.8781-10.059 1.0132-13.906 1.9456-1.9238 4.9118-3.671 7.5109-4.6036l5.3083 4.9782-0.85902 0.8734c-4.508-2.981-8.2231-2.9146-11.307 0.13948-2.3128 2.2837-3.2819 5.727-0.7048 8.3261 5.8442 5.9252 16.028-8.9795 24.757-0.13214 4.4713 4.5229 2.9295 11.277-1.1674 15.316-2.4522 2.4301-4.9926 4.2141-8.5682 5.5213z"/><path d="m-303.1 479.98-2.6138 3.495-0.9251-0.6828 8.3773-11.233 0.9251 0.69014-2.6064 3.5021 24.743 18.451 2.6064-3.5021 0.9251 0.69751-8.3773 11.226-0.9251-0.69087 2.6138-3.4944z"/><path d="m-287.9 457.18-1.8062 3.568c-2.1659 4.2658 1.3803 8.0399 5.1394 10.169l-0.63143 1.2337-9.4786-4.8093 13.37-26.336 9.4786 4.8165-0.6314 1.2332c-3.928-1.784-9.0968-2.3715-11.248 1.8503l-1.8062 3.5756 27.268 13.84 2.3128-4.5668 1.0206 0.52129-7.0117 13.833-1.0279-0.52862 2.3128-4.5596z"/><path d="m-260.99 429.75-17.056 4.4422-0.99851 3.7446-1.116-0.29367 3.7959-14.28 1.116 0.2937-1.2335 4.6618 15.007-3.5899-11.351-10.176-1.2188 4.5744-1.116-0.29367 2.5257-9.4931 1.116 0.2937-0.93244 3.5022 12.731 11.49 15.088 4.0161 1.1013-4.1407 1.1086 0.2937-3.5829 13.495-1.116-0.29366 1.1306-4.2585z"/><path d="m-542.94 241.73c-4.0088-6.564-1.8869-15.161 4.7356-19.214 6.6299-4.0455 15.249-2.0191 19.258 4.5375 4.0088 6.5491 1.8869 15.154-4.743 19.207-6.6225 4.0529-15.249 2.0191-19.251-4.53zm16.314-0.27166c2.9662-1.8209 3.4287-6.4466 1.0426-10.352-2.3862-3.8987-6.718-5.5875-9.6768-3.7814-2.9662 1.8063-3.4361 6.4463-1.0499 10.345 2.3862 3.8988 6.7253 5.602 9.6842 3.7887z"/><path d="m-536.2 218.14-2.4229-3.9645-6.8355 4.1702 2.4229 3.9648-8.9059 5.4479 2.7826 4.552 24.655-15.059-2.79-4.5592z"/><path d="m-517.82 203.44-6.8354 4.1776 22.65 37.048 6.8281-4.1776-12.929-21.145 6.138-3.7516-2.79-4.552-6.1306 3.7442z"/><path d="m-417.09 183.52v13.238h-2.8781v-13.238h-7.6504v43.414h7.6504v-24.412h2.8781v24.412h7.6431v-43.414z"/><path d="m-443.4 190.81h12.092v-5.3376h-20.11v25.712c0 2.6945 2.3128 4.8751 5.1908 4.8751h21.446v-5.3375h-18.619z"/><path d="m-587.15 309.94 9.9779 5.2789 13.832-26.145 4.7356 2.5036-15.154 28.641c-1.3509 2.5404-4.3685 3.5536-6.7474 2.2979l-10.389-5.4916z"/><path d="m-600.73 278.35 3.7445-7.0777 25.624 13.553-3.7518 7.0854z"/><path d="m-607.01 314.88c-5.7048-3.0252-7.4155-10.998-3.8032-17.805 3.6049-6.8134 11.153-9.8895 16.865-6.8722 5.7048 3.0252 7.4081 10.999 3.8032 17.812-3.605 6.8132-11.153 9.8896-16.865 6.8648zm11.85-9.5155c1.6079-3.0541 0.53596-6.7839-2.4009-8.3404-2.9368-1.5566-6.6225-0.34508-8.2378 2.7016-1.6153 3.0471-0.54333 6.7842 2.3935 8.3334 2.9442 1.5565 6.6299 0.34507 8.2451-2.6947z"/><path d="m-348.27 216.23c3.069-4.6329 10.44-5.1541 16.461-1.1674 6.0205 3.9867 8.414 10.976 5.345 15.616-3.069 4.6329-10.44 5.154-16.461 1.1672-6.0132-3.9941-8.4067-10.984-5.345-15.616zm8.1203 11.424c2.4669 1.6224 5.7048 1.0719 7.2393-1.2484 1.5345-2.3272 0.79293-5.521-1.674-7.151-2.4596-1.6373-5.7048-1.072-7.2393 1.2482-1.5345 2.3128-0.7856 5.521 1.674 7.1512z"/><path d="m-328.02 216.59 2.5698-3.8765-6.674-4.4272-2.577 3.8764-8.3993-5.5651-2.9515 4.4565 23.48 15.558 2.9589-4.4495z"/><path d="m-306.2 227.44-6.6813-4.4198-13.487 20.36 6.6813 4.4272 5.9397-8.9721 5.9911 3.9722 2.9442-4.4494-5.9911-3.9645z"/><path d="m-351.74 229.41-2.9515 4.4495 24.067 15.94-6.2407 9.4197 6.6812 4.4273 9.185-13.876z"/><path d="m-285.47 307.38 14.016-7.8705-3.9207-6.9896-14.023 7.8634-10.316-18.385-4.6622 2.6139 22.907 40.822 4.6622-2.6137z"/><path d="m-293.37 297.6 15.859-8.8912-3.9207-6.9896-15.859 8.8987"/><path d="m-252.52 298.43-16.175-28.81-4.6548 2.6136 14.728 26.248-24.904 13.972 3.9133 6.99 25.536-14.332c2.2614-1.2699 2.9148-4.2508 1.5565-6.681z"/><path d="m-348.24 310.45h-32.261v-8.1499h-12.232v-35.139h-49.243c-9.5227 0-17.379 3.1716-22.731 9.1847-4.9853 5.5875-7.6137 13.385-7.6137 22.526v11.578h-38.649l-15.998 150.7 97.363 41.483 97.37-41.483zm-81.181 188.62-0.18355 0.0807-0.17621-0.0807-93.45-39.794-0.31573-0.13211 0.0367-0.33777 15.374-144.76 0.0441-0.40381h38.964v-14.78c0-8.3482 2.3568-15.404 6.8061-20.404 4.7283-5.3082 11.762-8.1128 20.345-8.1128h46.042v35.132h12.239v8.1644h32.584l0.044 0.40381 15.367 144.76 0.0294 0.33774-0.30102 0.13218z"/><path d="m-383.7 330.19h-12.239v22.239h12.239v5.6973h31.615l-4.1189-38.781h-27.496v10.389z" fill="#32ffff" fill-rule="evenodd"/><path d="m-503.01 319.35-4.1189 38.781h38.002v-38.781z" fill="#32ffff" fill-rule="evenodd"/><path d="m-351.52 363.38h-32.173v13.561h-12.239v18.781h-38.083v-32.342h-14.317v3.6343c0 18.554-17.254 28.267-34.295 28.267h-1.7107v-20.11h1.1013c8.0396 0 14.111-4.2217 14.111-9.8237v-1.9678h-38.553l-9.7943 92.202 87.87 37.43 87.877-37.43z" fill="#0065ff" fill-rule="evenodd"/><path d="m-434.02 358.13v-38.781h-14.317v38.781z" fill="#32ffff" fill-rule="evenodd"/><path d="m-438.64 288.34c-4.6696 0-9.6989 3.3553-9.6989 10.712v14.596h14.317v-25.308zm1.4464 22.107h-7.9515v-11.395c0-5.5508 3.5022-7.511 6.5051-7.511h1.4464z" fill-rule="evenodd"/><path d="m-470.94 424.02v2.4816h6.16v20.998h3.1865v-28.847h-2.4963c-0.4552 4.5224-2.7312 5.286-6.8501 5.3668z" fill="#fff"/><path d="m-445.22 418.65c-4.3759 0-7.6504 3.9206-7.6504 10.073 0 4.6619 2.2687 8.8102 7.4228 8.8102 2.0778 0 4.1923-1.0791 5.3083-3.5388h0.0807c-0.15418 3.0764-0.11747 11.219-4.9999 11.219-2.7166 0-3.8326-1.3879-3.8326-3.9942h-3.2672c0.11747 4.1483 2.4596 6.8725 6.7253 6.8725 8.2965 0 8.5241-10.029 8.5241-16.035 0-5.947-0.58002-13.406-8.3112-13.406zm0.15417 16.006c-3.7224 0-4.4933-3.5098-4.4933-6.505 0-2.9222 0.84434-6.6228 4.4566-6.6228 3.8399 0 4.7283 4.0457 4.7283 7.1221 0 3.0029-1.0719 6.0058-4.6916 6.0058z" fill="#fff"/><path d="m-421.18 428.59c-1.997 0-3.2966 0.69014-4.6475 2.0708l1.2702-8.539h9.6842v-2.8707h-12.261l-1.6887 14.838h2.8414c0.77092-1.7696 2.1218-2.6211 4.0381-2.6211 4.0675 0 4.8017 3.4654 4.8017 6.7765 0 3.5904-1.2335 6.9751-4.6108 6.9751-3.2672 0-4.4126-2.151-4.2584-5.235h-3.3113c-0.2276 5.0808 2.5404 8.1133 7.6431 8.1133 5.9544 0 7.8413-5.2278 7.8413-10.353 0-4.699-2.0411-9.1189-7.3421-9.1556z" fill="#fff"/><path d="m-395.64 437.41v-18.759h-2.9295l-10.771 18.685v2.9514h10.506v7.2098h3.1938v-7.2098h2.5771v-2.8778zm-3.1938 0h-7.9661l7.9661-13.752z" fill="#fff"/></g></svg>
