<?xml version="1.0" encoding="UTF-8"?>
<svg width="594mm" height="420mm" version="1.1" viewBox="0 0 2245 1587.4" xmlns="http://www.w3.org/2000/svg" xmlns:xlink="http://www.w3.org/1999/xlink">
<defs>
<clipPath id="l">
<path d="m0 792h612v-792h-612z"/>
</clipPath>
<clipPath id="k">
<path d="m0 792h612v-792h-612z"/>
</clipPath>
<clipPath id="j">
<path transform="translate(-277.43 -394.01)" d="m0 792h612v-792h-612z"/>
</clipPath>
<clipPath id="i">
<path transform="translate(-315.39 -416.38)" d="m0 792h612v-792h-612z"/>
</clipPath>
<clipPath id="h">
<path transform="translate(-173.15 -414.68)" d="m0 792h612v-792h-612z"/>
</clipPath>
<clipPath id="g">
<path transform="translate(-199.07 -403.11)" d="m0 792h612v-792h-612z"/>
</clipPath>
<clipPath id="f">
<path transform="translate(-336.39 -414.79)" d="m0 792h612v-792h-612z"/>
</clipPath>
<clipPath id="e">
<path transform="translate(-349.38 -412.28)" d="m0 792h612v-792h-612z"/>
</clipPath>
<clipPath id="d">
<path transform="translate(-354.81 -412.1)" d="m0 792h612v-792h-612z"/>
</clipPath>
<clipPath id="c">
<path transform="translate(-366.18 -404.97)" d="m0 792h612v-792h-612z"/>
</clipPath>
<clipPath id="b">
<path transform="translate(-368.49 -411.71)" d="m0 792h612v-792h-612z"/>
</clipPath>
<clipPath id="a">
<path transform="translate(-382.2 -413.17)" d="m0 792h612v-792h-612z"/>
</clipPath>
<clipPath id="am">
<path transform="translate(-392.66 -404.97)" d="m0 792h612v-792h-612z"/>
</clipPath>
<clipPath id="al">
<path transform="translate(-399.54 -410.47)" d="m0 792h612v-792h-612z"/>
</clipPath>
<clipPath id="ak">
<path transform="translate(-401.02 -415.55)" d="m0 792h612v-792h-612z"/>
</clipPath>
<clipPath id="aj">
<path transform="translate(-409.88 -412.1)" d="m0 792h612v-792h-612z"/>
</clipPath>
<clipPath id="ai">
<path transform="translate(-422.23 -412.28)" d="m0 792h612v-792h-612z"/>
</clipPath>
<clipPath id="ah">
<path d="m0 792h612v-792h-612z"/>
</clipPath>
<clipPath id="ag">
<path transform="translate(-435.04 -412.28)" d="m0 792h612v-792h-612z"/>
</clipPath>
<clipPath id="af">
<path transform="translate(-447.4 -412.1)" d="m0 792h612v-792h-612z"/>
</clipPath>
<clipPath id="ae">
<path transform="translate(-452.44 -406.58)" d="m0 792h612v-792h-612z"/>
</clipPath>
<clipPath id="ad">
<path transform="translate(-461.47 -414.79)" d="m0 792h612v-792h-612z"/>
</clipPath>
<clipPath id="ac">
<path d="m0 792h612v-792h-612z"/>
</clipPath>
<clipPath id="ab">
<path transform="translate(-472.47 -412.1)" d="m0 792h612v-792h-612z"/>
</clipPath>
<clipPath id="aa">
<path transform="translate(-481.67 -411.71)" d="m0 792h612v-792h-612z"/>
</clipPath>
<clipPath id="z">
<path transform="translate(-489.39 -412.1)" d="m0 792h612v-792h-612z"/>
</clipPath>
<clipPath id="y">
<path transform="translate(-503.17 -410.47)" d="m0 792h612v-792h-612z"/>
</clipPath>
<clipPath id="x">
<path transform="translate(-510.74 -404.97)" d="m0 792h612v-792h-612z"/>
</clipPath>
<clipPath id="w">
<path transform="translate(-343.88 -389.11)" d="m0 792h612v-792h-612z"/>
</clipPath>
<clipPath id="v">
<path transform="translate(-348.56 -396.7)" d="m0 792h612v-792h-612z"/>
</clipPath>
<clipPath id="u">
<path transform="translate(-353.99 -396.52)" d="m0 792h612v-792h-612z"/>
</clipPath>
<clipPath id="t">
<path transform="translate(-359.53 -396.52)" d="m0 792h612v-792h-612z"/>
</clipPath>
<clipPath id="s">
<path transform="translate(-371.87 -396.7)" d="m0 792h612v-792h-612z"/>
</clipPath>
<clipPath id="r">
<path transform="translate(-377.3 -396.52)" d="m0 792h612v-792h-612z"/>
</clipPath>
<clipPath id="q">
<path transform="translate(-383.19 -396.13)" d="m0 792h612v-792h-612z"/>
</clipPath>
<clipPath id="p">
<path transform="translate(-391.55 -395.08)" d="m0 792h612v-792h-612z"/>
</clipPath>
<clipPath id="o">
<path d="m0 792h612v-792h-612z"/>
</clipPath>
<clipPath id="n">
<path transform="translate(-403.92 -396.7)" d="m0 792h612v-792h-612z"/>
</clipPath>
<clipPath id="m">
<path transform="translate(-409.3 -396.52)" d="m0 792h612v-792h-612z"/>
</clipPath>
</defs>
<g>
<path transform="matrix(5.4673 0 0 -5.4673 -672.26 2947.1)" d="m145.49 380.78h44.8v44.794h-44.8z" clip-path="url(#l)" fill="#b3d334"/>
<path transform="matrix(5.4673 0 0 -5.4673 -672.26 2947.1)" d="m230.12 389.07h-7.201v27.324h7.201z" clip-path="url(#k)" fill="#00377c"/>
<path transform="matrix(5.4673 0 0 -5.4673 844.54 792.93)" d="m0 0v10.293c0 3.894-3.227 4.926-4.933 4.934h-21.081v7.136h-7.199v-21.873c0-0.08-0.027-2.037 1.489-3.586 1.173-1.209 2.929-1.819 5.212-1.819h21.574c1.709 3e-3 4.938 1.036 4.938 4.915m-26.014 9.325h18.793v-8.336h-18.793z" clip-path="url(#j)" fill="#00377c"/>
<path transform="matrix(5.4673 0 0 -5.4673 1052 670.65)" d="m0 0h-19.797c-2.281 0-4.028-0.611-5.213-1.816-1.509-1.551-1.478-3.504-1.478-3.586v-16.442c0-0.052 0.093-5.435 6.677-5.435h19.819c6.584 0 6.681 5.383 6.681 5.432v16.458c0 0.069 0.032 2.022-1.484 3.573-1.172 1.205-2.926 1.816-5.205 1.816m-0.504-21.375h-18.789v15.473h18.789z" clip-path="url(#i)" fill="#00377c"/>
<path transform="matrix(5.4673 0 0 -5.4673 274.41 679.91)" d="m0 0v-2.658h5.848v-22.955h7.201v29.858z" clip-path="url(#h)" fill="#00377c"/>
<path transform="matrix(5.4673 0 0 -5.4673 416.09 743.17)" d="m0 0 14.076 13.175h-9.244l-13.612-13.175 13.741-13.906h9.205z" clip-path="url(#g)" fill="#00377c"/>
<path transform="matrix(5.4673 0 0 -5.4673 1166.9 679.34)" d="m0 0h2.063v-4.404l3.715 4.404h2.534l-4.231-4.83 4.408-5.418h-2.697l-3.699 4.756h-0.03v-4.756h-2.063z" clip-path="url(#f)" fill="#00377c"/>
<path transform="matrix(5.4673 0 0 -5.4673 1237.9 693.06)" d="m0 0c2.256 0 3.979-1.513 3.979-4.009 0-2.17-1.459-3.904-3.979-3.904-2.505 0-3.965 1.734-3.965 3.904 0 2.496 1.725 4.009 3.965 4.009m0-6.386c1.52 0 1.917 1.35 1.917 2.613 0 1.161-0.62 2.247-1.917 2.247-1.281 0-1.901-1.117-1.901-2.247 0-1.248 0.398-2.613 1.901-2.613" clip-path="url(#e)" fill="#00377c"/>
<path transform="matrix(5.4673 0 0 -5.4673 1267.6 694.02)" d="m0 0h1.755v-1.72h0.031c0.087 0.706 0.898 1.896 2.077 1.896 0.192 0 0.399 0 0.604-0.059v-1.981c-0.176 0.101-0.53 0.161-0.885 0.161-1.605 0-1.605-1.998-1.605-3.083v-2.774h-1.977z" clip-path="url(#d)" fill="#00377c"/>
<path transform="matrix(5.4673 0 0 -5.4673 1329.8 733.03)" d="m0 0c-0.721-0.397-1.548-0.604-2.608-0.604-2.505 0-3.964 1.438-3.964 3.92 0 2.188 1.164 3.994 3.521 3.994 2.815 0 3.612-1.923 3.612-4.566h-5.247c0.087-1.219 0.944-1.91 2.166-1.91 0.957 0 1.784 0.354 2.52 0.766zm-1.326 4.094c-0.059 0.955-0.502 1.777-1.606 1.777-1.105 0-1.667-0.764-1.754-1.777z" clip-path="url(#c)" fill="#00377c"/>
<path transform="matrix(5.4673 0 0 -5.4673 1342.4 696.2)" d="m0 0c0.768 0.352 1.799 0.572 2.639 0.572 2.312 0 3.271-0.955 3.271-3.185v-0.969c0-0.762 0.016-1.336 0.029-1.893 0.014-0.574 0.045-1.101 0.088-1.689h-1.738c-0.074 0.396-0.074 0.897-0.09 1.131h-0.028c-0.457-0.836-1.444-1.305-2.344-1.305-1.341 0-2.652 0.807-2.652 2.245 0 1.13 0.545 1.79 1.297 2.157 0.751 0.368 1.723 0.441 2.549 0.441h1.091c0 1.22-0.546 1.63-1.71 1.63-0.839 0-1.68-0.324-2.343-0.822zm2.314-5.9c0.604 0 1.077 0.263 1.385 0.673 0.326 0.426 0.413 0.97 0.413 1.557h-0.856c-0.883 0-2.195-0.146-2.195-1.307 0-0.645 0.544-0.923 1.253-0.923" clip-path="url(#b)" fill="#00377c"/>
<path transform="matrix(5.4673 0 0 -5.4673 1417.3 688.17)" d="m0 0h-2.948v1.615h7.959v-1.615h-2.949v-8.631h-2.062z" clip-path="url(#a)" fill="#00377c"/>
<path transform="matrix(5.4673 0 0 -5.4673 1474.5 733.03)" d="m0 0c-0.722-0.397-1.549-0.604-2.609-0.604-2.505 0-3.964 1.438-3.964 3.92 0 2.188 1.164 3.994 3.522 3.994 2.815 0 3.612-1.923 3.612-4.566h-5.249c0.088-1.219 0.944-1.91 2.167-1.91 0.958 0 1.783 0.354 2.521 0.766zm-1.328 4.094c-0.059 0.955-0.5 1.777-1.605 1.777-1.106 0-1.667-0.764-1.755-1.777z" clip-path="url(#am)" fill="#00377c"/>
<path transform="matrix(5.4673 0 0 -5.4673 1512.2 702.94)" d="m0 0c-0.352 0.161-0.736 0.28-1.34 0.28-1.224 0-2.006-0.968-2.006-2.392 0-1.395 0.664-2.467 2.049-2.467 0.561 0 1.18 0.205 1.518 0.351l0.09-1.627c-0.575-0.177-1.165-0.249-1.975-0.249-2.492 0-3.744 1.687-3.744 3.992 0 2.187 1.297 3.918 3.67 3.918 0.795 0 1.371-0.086 1.916-0.249z" clip-path="url(#al)" fill="#00377c"/>
<path transform="matrix(5.4673 0 0 -5.4673 1520.2 675.17)" d="m0 0h1.975v-4.477h0.029c0.5 0.733 1.357 1.203 2.389 1.203 1.798 0 2.578-1.262 2.578-2.963v-4.772h-1.975v4.036c0 0.925-0.014 2.171-1.281 2.171-1.432 0-1.74-1.54-1.74-2.51v-3.697h-1.975z" clip-path="url(#ak)" fill="#00377c"/>
<path transform="matrix(5.4673 0 0 -5.4673 1568.7 694.02)" d="m0 0h1.871v-1.028h0.029c0.62 0.865 1.459 1.204 2.491 1.204 1.798 0 2.58-1.263 2.58-2.966v-4.77h-1.975v4.036c0 0.925-0.014 2.171-1.283 2.171-1.43 0-1.738-1.541-1.738-2.509v-3.698h-1.975z" clip-path="url(#aj)" fill="#00377c"/>
<path transform="matrix(5.4673 0 0 -5.4673 1636.2 693.06)" d="m0 0c2.254 0 3.979-1.513 3.979-4.009 0-2.17-1.461-3.904-3.979-3.904-2.506 0-3.965 1.734-3.965 3.904 0 2.496 1.723 4.009 3.965 4.009m0-6.386c1.518 0 1.916 1.35 1.916 2.613 0 1.161-0.621 2.247-1.916 2.247-1.283 0-1.902-1.117-1.902-2.247 0-1.248 0.398-2.613 1.902-2.613" clip-path="url(#ai)" fill="#00377c"/>
<path transform="matrix(5.4673 0 0 -5.4673 -672.26 2947.1)" d="m427.65 415.55h1.975v-11.009h-1.975z" clip-path="url(#ah)" fill="#00377c"/>
<path transform="matrix(5.4673 0 0 -5.4673 1706.2 693.06)" d="m0 0c2.256 0 3.98-1.513 3.98-4.009 0-2.17-1.46-3.904-3.98-3.904-2.504 0-3.965 1.734-3.965 3.904 0 2.496 1.725 4.009 3.965 4.009m0-6.386c1.52 0 1.916 1.35 1.916 2.613 0 1.161-0.617 2.247-1.916 2.247-1.281 0-1.9-1.117-1.9-2.247 0-1.248 0.398-2.613 1.9-2.613" clip-path="url(#ag)" fill="#00377c"/>
<path transform="matrix(5.4673 0 0 -5.4673 1773.8 694.02)" d="m0 0v-6.827c0-2.055-0.826-3.991-4.01-3.991-0.781 0-1.679 0.117-2.625 0.512l0.164 1.674c0.604-0.322 1.592-0.661 2.211-0.661 2.182 0 2.283 1.63 2.283 2.936h-0.027c-0.367-0.648-1.254-1.203-2.359-1.203-2.241 0-3.096 1.789-3.096 3.816 0 1.819 0.943 3.92 3.215 3.92 1 0 1.781-0.339 2.326-1.204h0.029v1.028zm-1.977-3.701c0 1.292-0.5 2.348-1.65 2.348-1.342 0-1.768-1.232-1.768-2.391 0-1.027 0.545-2.29 1.68-2.29 1.238 0 1.738 1.071 1.738 2.333" clip-path="url(#af)" fill="#00377c"/>
<path transform="matrix(5.4673 0 0 -5.4673 1801.4 724.2)" d="m0 0h0.029l1.828 5.518h2.004l-2.845-7.501c-0.633-1.672-1.09-3.317-3.155-3.317-0.47 0-0.941 0.072-1.398 0.205l0.131 1.453c0.252-0.086 0.531-0.13 1.017-0.13 0.797 0 1.284 0.543 1.284 1.347l-2.905 7.943h2.182z" clip-path="url(#ae)" fill="#00377c"/>
<path transform="matrix(5.4673 0 0 -5.4673 1850.7 679.34)" d="m0 0h5.719v-1.615h-3.656v-2.525h3.478v-1.616h-3.478v-4.492h-2.063z" clip-path="url(#ad)" fill="#00377c"/>
<path transform="matrix(5.4673 0 0 -5.4673 -672.26 2947.1)" d="m468.56 415.36h1.975v-1.88h-1.975zm0-3.26h1.975v-7.56h-1.975z" clip-path="url(#ac)" fill="#00377c"/>
<path transform="matrix(5.4673 0 0 -5.4673 1910.9 694.02)" d="m0 0h1.871v-1.028h0.029c0.62 0.865 1.459 1.204 2.493 1.204 1.796 0 2.578-1.263 2.578-2.966v-4.77h-1.975v4.036c0 0.925-0.014 2.171-1.283 2.171-1.43 0-1.738-1.541-1.738-2.509v-3.698h-1.975z" clip-path="url(#ab)" fill="#00377c"/>
<path transform="matrix(5.4673 0 0 -5.4673 1961.2 696.2)" d="m0 0c0.768 0.352 1.799 0.572 2.641 0.572 2.312 0 3.269-0.955 3.269-3.185v-0.969c0-0.762 0.016-1.336 0.029-1.893 0.014-0.574 0.045-1.101 0.088-1.689h-1.736c-0.076 0.396-0.076 0.897-0.092 1.131h-0.027c-0.459-0.836-1.445-1.305-2.344-1.305-1.342 0-2.652 0.807-2.652 2.245 0 1.13 0.545 1.79 1.297 2.157 0.75 0.368 1.722 0.441 2.548 0.441h1.09c0 1.22-0.545 1.63-1.709 1.63-0.839 0-1.679-0.324-2.343-0.822zm2.314-5.9c0.604 0 1.077 0.263 1.387 0.673 0.324 0.426 0.41 0.97 0.41 1.557h-0.855c-0.883 0-2.193-0.146-2.193-1.307 0-0.645 0.542-0.923 1.251-0.923" clip-path="url(#aa)" fill="#00377c"/>
<path transform="matrix(5.4673 0 0 -5.4673 2003.4 694.02)" d="m0 0h1.871v-1.028h0.031c0.619 0.865 1.459 1.204 2.491 1.204 1.798 0 2.578-1.263 2.578-2.966v-4.77h-1.975v4.036c0 0.925-0.014 2.171-1.281 2.171-1.43 0-1.74-1.541-1.74-2.509v-3.698h-1.975z" clip-path="url(#z)" fill="#00377c"/>
<path transform="matrix(5.4673 0 0 -5.4673 2078.7 702.94)" d="m0 0c-0.354 0.161-0.738 0.28-1.34 0.28-1.224 0-2.006-0.968-2.006-2.392 0-1.395 0.664-2.467 2.049-2.467 0.559 0 1.18 0.205 1.518 0.351l0.09-1.627c-0.575-0.177-1.165-0.249-1.977-0.249-2.49 0-3.742 1.687-3.742 3.992 0 2.187 1.297 3.918 3.67 3.918 0.795 0 1.369-0.086 1.916-0.249z" clip-path="url(#y)" fill="#00377c"/>
<path transform="matrix(5.4673 0 0 -5.4673 2120.1 733.03)" d="m0 0c-0.723-0.397-1.549-0.604-2.609-0.604-2.506 0-3.965 1.438-3.965 3.92 0 2.188 1.164 3.994 3.521 3.994 2.817 0 3.614-1.923 3.614-4.566h-5.249c0.088-1.219 0.944-1.91 2.167-1.91 0.958 0 1.783 0.354 2.521 0.766zm-1.328 4.094c-0.059 0.955-0.5 1.777-1.606 1.777-1.105 0-1.666-0.764-1.754-1.777z" clip-path="url(#x)" fill="#00377c"/>
<path transform="matrix(5.4673 0 0 -5.4673 1207.8 819.73)" d="m0 0c-0.75-0.179-1.561-0.325-2.342-0.325-3.331 0-5.646 1.66-5.646 5.125 0 3.507 2.153 5.473 5.646 5.473 0.677 0 1.576-0.129 2.328-0.424l-0.146-1.732c-0.783 0.441-1.49 0.544-2.227 0.544-2.121 0-3.448-1.615-3.448-3.717 0-2.084 1.296-3.652 3.493-3.652 0.809 0 1.768 0.174 2.256 0.424z" clip-path="url(#w)" fill="#00377c"/>
<path transform="matrix(5.4673 0 0 -5.4673 1233.4 778.25)" d="m0 0c2.256 0 3.98-1.512 3.98-4.008 0-2.17-1.459-3.904-3.98-3.904-2.504 0-3.964 1.734-3.964 3.904 0 2.496 1.724 4.008 3.964 4.008m0-6.384c1.52 0 1.917 1.349 1.917 2.613 0 1.16-0.62 2.246-1.917 2.246-1.281 0-1.9-1.116-1.9-2.246 0-1.249 0.398-2.613 1.9-2.613" clip-path="url(#v)" fill="#00377c"/>
<path transform="matrix(5.4673 0 0 -5.4673 1263.1 779.21)" d="m0 0h1.755v-1.718h0.031c0.087 0.704 0.897 1.896 2.077 1.896 0.192 0 0.398 0 0.604-0.059v-1.981c-0.177 0.1-0.53 0.161-0.885 0.161-1.606 0-1.606-1.998-1.606-3.082v-2.776h-1.976z" clip-path="url(#u)" fill="#00377c"/>
<path transform="matrix(5.4673 0 0 -5.4673 1293.4 779.21)" d="m0 0h1.887v-1.07h0.029c0.441 0.733 1.193 1.248 2.358 1.248 2.33 0 3.184-1.851 3.184-3.936 0-2.07-0.854-3.978-3.228-3.978-0.84 0-1.533 0.207-2.226 1.044h-0.028v-3.951h-1.976zm1.99-3.758c0-1.07 0.428-2.451 1.739-2.451 1.297 0 1.666 1.409 1.666 2.451 0 1.014-0.354 2.407-1.635 2.407-1.269 0-1.77-1.348-1.77-2.407" clip-path="url(#t)" fill="#00377c"/>
<path transform="matrix(5.4673 0 0 -5.4673 1360.9 778.25)" d="m0 0c2.254 0 3.979-1.512 3.979-4.008 0-2.17-1.459-3.904-3.979-3.904-2.506 0-3.965 1.734-3.965 3.904 0 2.496 1.725 4.008 3.965 4.008m0-6.384c1.52 0 1.916 1.349 1.916 2.613 0 1.16-0.619 2.246-1.916 2.246-1.282 0-1.902-1.116-1.902-2.246 0-1.249 0.398-2.613 1.902-2.613" clip-path="url(#s)" fill="#00377c"/>
<path transform="matrix(5.4673 0 0 -5.4673 1390.5 779.21)" d="m0 0h1.754v-1.718h0.031c0.088 0.704 0.898 1.896 2.078 1.896 0.192 0 0.398 0 0.604-0.059v-1.981c-0.176 0.1-0.531 0.161-0.885 0.161-1.606 0-1.606-1.998-1.606-3.082v-2.776h-1.976z" clip-path="url(#r)" fill="#00377c"/>
<path transform="matrix(5.4673 0 0 -5.4673 1422.7 781.37)" d="m0 0c0.768 0.351 1.799 0.57 2.64 0.57 2.312 0 3.271-0.954 3.271-3.183v-0.971c0-0.762 0.015-1.335 0.029-1.893 0.014-0.572 0.044-1.101 0.088-1.688h-1.737c-0.076 0.397-0.076 0.896-0.091 1.131h-0.028c-0.457-0.836-1.444-1.306-2.344-1.306-1.341 0-2.652 0.807-2.652 2.246 0 1.129 0.545 1.79 1.297 2.156 0.75 0.368 1.723 0.442 2.549 0.442h1.091c0 1.219-0.547 1.629-1.711 1.629-0.839 0-1.679-0.323-2.341-0.821zm2.315-5.902c0.603 0 1.076 0.265 1.386 0.675 0.324 0.426 0.412 0.969 0.412 1.556h-0.856c-0.884 0-2.194-0.145-2.194-1.307 0-0.645 0.544-0.924 1.252-0.924" clip-path="url(#q)" fill="#00377c"/>
<path transform="matrix(5.4673 0 0 -5.4673 1468.4 787.07)" d="m0 0h-1.459v1.438h1.459v1.513l1.977 0.632v-2.145h1.753v-1.438h-1.753v-3.523c0-0.647 0.175-1.248 0.929-1.248 0.352 0 0.692 0.073 0.897 0.207l0.06-1.557c-0.414-0.119-0.871-0.178-1.461-0.178-1.547 0-2.402 0.955-2.402 2.451z" clip-path="url(#p)" fill="#00377c"/>
<path transform="matrix(5.4673 0 0 -5.4673 -672.26 2947.1)" d="m396.53 399.78h1.977v-1.879h-1.977zm0-3.258h1.977v-7.561h-1.977z" clip-path="url(#o)" fill="#00377c"/>
<path transform="matrix(5.4673 0 0 -5.4673 1536.1 778.25)" d="m0 0c2.256 0 3.98-1.512 3.98-4.008 0-2.17-1.46-3.904-3.98-3.904-2.504 0-3.963 1.734-3.963 3.904 0 2.496 1.723 4.008 3.963 4.008m0-6.384c1.52 0 1.918 1.349 1.918 2.613 0 1.16-0.621 2.246-1.918 2.246-1.281 0-1.9-1.116-1.9-2.246 0-1.249 0.398-2.613 1.9-2.613" clip-path="url(#n)" fill="#00377c"/>
<path transform="matrix(5.4673 0 0 -5.4673 1565.5 779.21)" d="m0 0h1.871v-1.027h0.031c0.619 0.866 1.459 1.205 2.491 1.205 1.798 0 2.58-1.264 2.58-2.967v-4.77h-1.977v4.036c0 0.927-0.014 2.172-1.281 2.172-1.43 0-1.74-1.542-1.74-2.509v-3.699h-1.975z" clip-path="url(#m)" fill="#00377c"/>
</g>
</svg>
