<?xml version="1.0" encoding="UTF-8"?>
<svg width="594mm" height="420mm" version="1.1" viewBox="0 0 594 420" xml:space="preserve" xmlns="http://www.w3.org/2000/svg"><g transform="matrix(.035278 0 0 -.035278 212.81 254.86)"><path d="m-3593.1 424.01c459.98-310.03 1180.7-417.89 1852.9-47.633-414.19-700.61-1247.8-1085.5-2083.1-893.4-1033.6 237.82-1678.5 1268.2-1441 2301.7 229.68 998.93 1200.2 1634.9 2198.1 1461.4 0 0 391.54-67.823 592.82-414.19 75.693-124.76 136.06-269.85 175.41-433.56l0.8213-3.8326c47.017-218.8 48.044-451.35-5.4751-683.91-82.537-359.23-285.18-695.34-548.81-875.12l-1.6425-1.6425c91.434 94.445 159.12 214.76 190.94 352.39 92.871 403.51-159.26 806-562.7 898.8-404.06 92.871-806.14-159.05-899.21-562.91-26.828-116.69-30.524-232.69-8.2811-341.71 0 0 70.834-455.6 539.16-756.32" fill="#1476c6"/><path d="m-3757.2 686.82c172.53-96.704 380.04-139.89 380.04-139.89 470.52-108.61 943.02 9.513 1301.5 278.34l2.2584 2.0532c159.87 113.2 301.54 257.95 414.94 431.92 72.682 111.42 129.62 228.31 171.37 348.76 52.903-479.14-47.839-750.02-47.839-750.02-132.57-158.09-271.29-253.98-271.29-253.98-357.04-263.97-818.66-367.93-1285.1-260.34 0 0-403.38 84.385-665.91 343.15" fill="#21b5b0"/><path d="m-3286.2 603.05c735.92-59.336 1426.5 474.55 1597.6 1146.7 0 0 51.466 211.95 53.245 368.75 0 0-153.17 401.46-569.75 737.15 161.45-317.69 216.54-691.98 130.38-1066.1-130.38-568.04-552.85-992.7-1072-1152.7-43.801-13.346-92.46-25.459-140.03-32.782l0.5476-0.95814" fill="#21b5b0"/><path d="m1491.7 2872.7v-1140.6h-261.09v1140.6h261.09" fill="#565353"/><path d="m10130 2873.2v-1913.3h-261.02v1913.3h261.02" fill="#565353"/><path d="m3334.2 2873.6v-365.53h-381.27v-222.84h381.27v-553.05h261.23v1141.4h-261.23" fill="#565353"/><path d="m2939.8 1837.7-428.9 728.05h362.11v222.9h-394.62v150.36h-261.37v-150.36h-393.25v-222.9h359.3l-428.7-728.05h282.38l310.23 527.05 310.44-527.05h282.38" fill="#565353"/><path d="m9761 1516.4-665.98 1293.6h-292.44l-666.32-1293.6h289.91l522.53 1014.8 522.6-1014.8h289.7" fill="#565353"/><path d="m6237.3 1674.3v-222.84h1472.7v-486.46h261.16l-0.821 708.89-1733.1 0.4106" fill="#565353"/><path d="m90.116 1635h-261.23l-0.1369-627.31 1675.3-0.4106v222.84h-1413.9v404.88" fill="#565353"/><path d="m3584.7 1230.2h-1439.8v404.88h-261.16v-627.72h1701v222.84" fill="#565353"/><path d="m7300.6 2860.9v-223.45h409.4v-363.96h-409.4v-222.84h409.4v-270.67h261.16v1080.9h-670.56" fill="#565353"/><path d="m5459.8 2860.3 0.616-1069.4h261.16v846.17h183.89v223.86l-445.67-0.616" fill="#565353"/><path d="m3912.6 2617.3h1005.8v-495.97h-419.39v323.17h-261.23v-323.17h-371.35v-222.84l1312.9 0.4106v941.65l-1266.8-0.4106v-222.84" fill="#565353"/><path d="m216.86 2020.2c-167.95 0-304.21 136.26-304.21 304.35 0 168.15 136.26 304.41 304.21 304.41 168.09 0 304.42-136.26 304.42-304.41 0-168.09-136.33-304.35-304.42-304.35zm0 849.12c-300.72 0-544.57-243.98-544.57-544.77 0-300.72 243.85-544.77 544.57-544.77 300.99 0 544.77 244.05 544.77 544.77 0 300.79-243.78 544.77-544.77 544.77" fill="#565353"/><path d="m6642.6 2047.7c-168.15 0-304.21 136.47-304.21 304.35 0 167.95 136.06 304.21 304.21 304.21 168.08 0 304.14-136.26 304.14-304.21 0-167.88-136.06-304.35-304.14-304.35zm0 849.19c-300.72 0-544.84-244.05-544.84-544.84 0-300.72 244.12-544.77 544.84-544.77 300.79 0 544.57 244.05 544.57 544.77 0 300.79-243.78 544.84-544.57 544.84" fill="#565353"/><path d="m5272.6 1187.2c-168.09 0-304.35 136.26-304.35 304.41 0 168.09 136.26 304.35 304.35 304.35 168.15 0 304.28-136.26 304.28-304.35 0-168.15-136.12-304.41-304.28-304.41zm0 849.19c-300.65 0-544.77-244.05-544.77-544.77 0-300.79 244.12-544.84 544.77-544.84 300.79 0 544.84 244.05 544.84 544.84 0 300.72-244.05 544.77-544.84 544.77" fill="#565353"/><path d="m-162.42 626.46h-13.893v-810.79h127.36v810.79h-113.47" fill="#565353"/><path d="m323.42 401.98c-63.58 0-104.71-16.699-137.01-56.872v45.991h-123.19l1.3003-15.125c3.6273-43.185 5.4067-78.978 5.4067-112.65v-447.66h116.48v338.09c0 102.11 30.113 147.9 97.867 147.9 57.352 0 82.811-28.607 82.811-92.597v-393.39h116.62v393.39c0 89.791-18.205 192.93-160.28 192.93" fill="#565353"/><path d="m976.4 25.565h-107.52l0.4107-14.372c1.1634-37.71-7.7336-67.617-26.075-86.369-14.988-15.536-32.303-19.779-39.352-19.779-78.362 0-101.15 51.26-101.15 228.11 0 155.42 52.287 168.5 101.15 168.5 8.6917 0 25.254-2.19 38.942-16.083 16.152-16.562 24.159-45.649 23.201-83.769l-0.4106-14.167h119.7l0.6159 13.346c2.806 65.017-12.73 115.66-46.196 150.77-31.961 33.33-77.541 50.234-135.85 50.234-204.91 0-221.88-151.52-221.88-306.81 0-240.97 88.628-290.45 221.88-290.45 38.531 0 93.829 14.577 133.8 55.298 36.136 37.025 53.93 88.217 52.492 152l-0.2053 13.551h-13.551" fill="#565353"/><path d="m1344 401.98c-57.146 0-101.7-10.882-139.07-56.872v281.35h-116.48v-810.79h116.48v336.03c0 103.55 30.25 149.95 97.936 149.95 58.72 0 83.906-30.25 83.906-101.29v-384.69h116.48v402.08c0 123.87-52.082 184.24-159.26 184.24" fill="#565353"/><path d="m1804 306.92c54.272 0 92.598-12.319 95.198-151.18h-185.06c4.2432 150.77 59.747 151.18 89.86 151.18zm8.6233 95.061c-204.84 0-222.01-151.52-222.01-306.81 0-240.97 88.628-290.45 222.01-290.45 130.99 0 203.67 67.617 204.91 190.6v13.893h-124.56l-0.8212-12.935c-2.6007-44.143-25.391-91.229-81.716-91.229-51.124 0-93.487 13.14-96.293 155.83h307.56v60.363c0 173.35-34.835 280.74-209.08 280.74" fill="#565353"/><path d="m2315.8-94.955c-78.225 0-100.88 51.26-100.88 228.11 0 155.42 52.082 168.5 100.88 168.5 49.07 0 101.36-13.072 101.36-168.5 0-176.85-22.79-228.11-101.36-228.11zm0 496.93c-204.84 0-222.01-151.52-222.01-306.81 0-240.97 88.833-290.45 222.01-290.45 133.52 0 222.29 49.481 222.29 290.45 0 155.29-17.178 306.81-222.29 306.81" fill="#565353"/><path d="m2872.4 401.98c-63.443 0-104.57-16.699-136.88-56.872v45.991h-123.33l1.4372-15.125c3.6272-41.816 5.2698-78.568 5.2698-112.65v-447.66h116.62v338.09c0 102.11 30.113 147.9 97.936 147.9 57.146 0 82.742-28.607 82.742-92.597v-393.39h116.48v393.39c0 89.791-18.205 192.93-160.28 192.93" fill="#565353"/><path d="m3922.3 626.46h-10.061l-3.011-9.8552-187.38-617.32-185.47 617.32-2.875 9.8552h-185.81v-810.79h120.86v625.67l189.92-616.02 3.011-9.6498h114.91l3.011 9.6498 194.16 617.45v-627.1h127.36v810.79h-178.62" fill="#565353"/><path d="m4412.6 306.92c54.272 0 92.666-12.319 95.267-151.18h-184.92c4.037 138.11 48.112 151.18 89.654 151.18zm8.692 95.061c-204.9 0-222.02-151.52-222.02-306.81 0-240.97 88.833-290.45 222.02-290.45 130.99 0 203.67 67.617 204.84 190.6v13.893h-124.49l-0.822-12.935c-2.669-44.143-25.459-91.229-81.715-91.229-51.124 0-93.487 13.14-96.293 155.83h307.63v60.363c0 173.35-34.972 280.74-209.15 280.74" fill="#565353"/><path d="m4932.6-88.454c-9.513-1.0266-17.589-2.0532-21.079-2.0532-67.344 0-67.344 30.318-67.344 65.359v321.39h119.29v94.856h-119.29v152.82l-19.574-8.6917-89.038-40.173-8.076-3.6272v-100.33h-90.065v-94.856h90.065v-375.66c0-50.85 23.611-111.42 136.47-111.42 18.547 0 36.888 2.4638 54.682 4.6538 11.293 1.5741 22.859 3.2851 34.151 4.0379l12.661 1.0266v96.635l-15.33-1.7794-17.52-2.19" fill="#565353"/><path d="m5149.9 342.44v48.66h-116.62v-575.43h116.62v337.06c0 89.449 37.025 134.82 109.84 134.82 7.255 0 13.962-1.0266 21.011-1.7794 0.958-0.20531 8.897-1.4372 8.897-1.4372 5.475-0.61594 10.882-1.4372 15.741-2.2585l15.877-2.3954v122.3h-13.893c-67.617 0-118.26-5.612-157.48-59.542" fill="#565353"/><path d="m5565.8-94.955c-78.568 0-101.43 51.26-101.43 228.11 0 155.42 52.355 168.5 101.43 168.5 48.796 0 101.08-13.072 101.08-168.5 0-176.85-22.858-228.11-101.08-228.11zm0 496.93c-204.91 0-222.08-151.52-222.08-306.81 0-240.97 88.56-290.45 222.08-290.45 133.18 0 222.01 49.481 222.01 290.45 0 155.29-17.178 306.81-222.01 306.81" fill="#565353"/><path d="m6176.5 112.55c0-162.88-20.121-207.51-94.377-207.51-78.567 0-89.449 83.974-89.449 175v19.026c-0.616 61.732-1.232 146.12 35.93 183.42 12.73 12.935 29.018 19.163 50.303 19.163 90.407 0 97.593-85.548 97.593-189.1zm-69.602 289.43c-47.222 0-84.179-16.904-114.22-51.055v40.173h-116.48v-782.6h116.48v242.89c30.25-30.934 66.249-46.675 109.78-46.675 195.19 0 195.19 185.33 195.19 307.84 0 256.51-101.9 289.43-190.74 289.43" fill="#565353"/><path d="m6585.3-94.955c-78.499 0-101.08 51.26-101.08 228.11 0 155.42 52.219 168.5 101.08 168.5 49.071 0 101.36-13.072 101.36-168.5 0-176.85-22.79-228.11-101.36-228.11zm0 496.93c-204.84 0-222.02-151.52-222.02-306.81 0-240.97 88.834-290.45 222.02-290.45 133.39 0 222.02 49.481 222.02 290.45 0 155.29-17.178 306.81-222.02 306.81" fill="#565353"/><path d="m6899.8 626.46h-13.687v-810.79h116.62v810.79h-102.93" fill="#565353"/><path d="m7102.6 626.46h-13.687v-123.12h127.36v123.12h-113.68" fill="#565353"/><path d="m7108.1 391.1h-13.688v-575.43h116.41v575.43h-102.73" fill="#565353"/><path d="m7519.3-88.454c-9.103-1.0266-17.178-2.0532-20.6-2.0532-67.618 0-67.618 30.318-67.618 65.359v321.39h119.29v94.856h-119.29v152.82l-19.436-8.6917-88.97-40.173-8.145-3.6272v-100.33h-89.928v-94.856h89.928v-375.66c0-50.85 23.68-111.42 136.33-111.42 18.547 0 36.957 2.4638 54.614 4.6538 11.361 1.5741 23.064 3.2851 34.356 4.0379l12.73 1.0266v96.635l-15.33-1.7794-17.931-2.19" fill="#565353"/><path d="m7853.7 87.707c2.053-75.693-10.266-129.35-37.505-158.02-15.535-16.357-36.341-24.638-61.594-24.638-66.728 0-71.861 66.659-71.861 87.054 0 87.944 69.465 94.993 167.61 95.609zm116.48-127.98v263.49c0 120.25-62.758 178.76-191.7 178.76-131.61 0-195.05-56.667-199.22-178.42l-0.616-14.098h126.13l-1.437 15.125c-2.395 25.664 3.217 46.812 16.357 61.321 12.524 13.756 31.687 21.011 55.504 21.011 25.869 0 44.416-6.0226 56.735-18.752 21.969-22.585 22.79-64.948 21.969-105.33-93.213 1.7794-185.47-5.4751-241.18-59.747-30.865-30.113-46.675-72.066-46.675-124.35 0-130.58 53.519-194.02 163.57-194.02 56.872 0 97.251 17.794 126.13 56.12v-45.17h127.57l-2.395 15.741c-7.118 46.812-10.745 89.997-10.745 128.32" fill="#565353"/><path d="m8336.9 401.98c-63.374 0-104.37-16.699-136.81-56.872v45.991h-123.19l1.232-15.125c3.833-43.185 5.475-78.978 5.475-112.65v-447.66h116.48v338.09c0 102.11 30.181 147.9 97.867 147.9 57.283 0 82.742-28.607 82.742-92.597v-393.39h116.69v393.39c0 89.791-18.204 192.93-160.49 192.93" fill="#565353"/><path d="m9284.9 74.43h-116.62l-0.205-13.756c-0.753-130.58-68.987-150.15-109.57-150.15-69.054 0-126.41 15.125-126.41 201v209.35c0 115.25 14.783 143.31 19.574 152.55 1.026 1.8478 1.848 3.4904 2.395 5.2698 3.08 9.3076 32.372 51.671 105.4 51.671 18.616 0 60.363-8.2811 77.131-28.47 19.436-23.406 20.395-71.039 19.642-104.78l-0.206-14.098h130.1l0.89 12.73c5.407 85.959-10.745 147.55-49.071 188.69-36.956 39.215-92.46 58.173-169.8 58.173-183.62 0-265.4-91.845-265.4-297.91v-221.47c0-323.92 169.73-323.92 260.96-323.92 31.071 0 113.27 0 171.78 59.542 43.595 44.417 65.016 112.38 63.442 201.83l-0.205 13.756h-13.825" fill="#565353"/><path d="m9378.5 626.46h-13.962v-123.12h127.36v123.12h-113.4" fill="#565353"/><path d="m9383.7 391.1h-13.688v-575.43h116.42v575.43h-102.73" fill="#565353"/><path d="m10258 391.1h-106.9l-2.875-9.8552-119.15-404.54-119.01 404.54-3.08 9.8552h-200.25v152.82l-19.574-8.6917-88.901-40.173-8.145-3.6272v-100.33h-89.996v-94.856h89.996v-375.66c0-50.85 23.612-111.42 136.26-111.42 18.752 0 37.162 2.4638 54.887 4.6538 11.293 1.5741 22.791 3.2851 34.083 4.0379l12.729 1.0266v96.635l-15.33-1.7794-17.725-2.19c-9.308-1.0266-17.384-2.0532-20.806-2.0532-67.48 0-67.48 30.318-67.48 65.359v321.39h99.783l158.23-467.09-60.568-202.85-5.475-17.794h120.93l3.08 9.513 248.43 754.88 5.886 18.205h-19.026" fill="#565353"/></g></svg>
