<?xml version="1.0" encoding="UTF-8"?>
<svg width="594mm" height="420mm" version="1.1" viewBox="0 0 594 420" xml:space="preserve" xmlns="http://www.w3.org/2000/svg" xmlns:xlink="http://www.w3.org/1999/xlink"><defs><clipPath id="ax"><path transform="translate(-738.1 -1069.3)" d="m0 2148.7h2834.6v-2148.7h-2834.6z"/></clipPath><clipPath id="aw"><path transform="translate(-720.43 -1082.6)" d="m0 2148.7h2834.6v-2148.7h-2834.6z"/></clipPath><clipPath id="av"><path transform="translate(-827.23 -1116.9)" d="m0 2148.7h2834.6v-2148.7h-2834.6z"/></clipPath><clipPath id="au"><path transform="translate(-804.5 -1071.5)" d="m0 2148.7h2834.6v-2148.7h-2834.6z"/></clipPath><clipPath id="at"><path transform="translate(-876.14 -1099.8)" d="m0 2148.7h2834.6v-2148.7h-2834.6z"/></clipPath><clipPath id="as"><path transform="translate(-870.7 -1101.1)" d="m0 2148.7h2834.6v-2148.7h-2834.6z"/></clipPath><clipPath id="ar"><path transform="translate(-975.12 -1070.2)" d="m0 2148.7h2834.6v-2148.7h-2834.6z"/></clipPath><clipPath id="aq"><path transform="translate(-932.95 -1071.5)" d="m0 2148.7h2834.6v-2148.7h-2834.6z"/></clipPath><clipPath id="ap"><path transform="translate(-1011.7 -1134.4)" d="m0 2148.7h2834.6v-2148.7h-2834.6z"/></clipPath><clipPath id="ao"><path transform="translate(-1020 -1112.6)" d="m0 2148.7h2834.6v-2148.7h-2834.6z"/></clipPath><clipPath id="an"><path transform="translate(-1127.9 -1069.2)" d="m0 2148.7h2834.6v-2148.7h-2834.6z"/></clipPath><clipPath id="am"><path transform="translate(-1127.9 -1124.5)" d="m0 2148.7h2834.6v-2148.7h-2834.6z"/></clipPath><clipPath id="al"><path transform="translate(-1224.7 -1116.9)" d="m0 2148.7h2834.6v-2148.7h-2834.6z"/></clipPath><clipPath id="ak"><path transform="translate(-1201.9 -1071.5)" d="m0 2148.7h2834.6v-2148.7h-2834.6z"/></clipPath><clipPath id="aj"><path transform="translate(-1306 -1070.2)" d="m0 2148.7h2834.6v-2148.7h-2834.6z"/></clipPath><clipPath id="ai"><path transform="translate(-1297.6 -1071.5)" d="m0 2148.7h2834.6v-2148.7h-2834.6z"/></clipPath><clipPath id="ah"><path transform="translate(-1460.5 -1070.2)" d="m0 2148.7h2834.6v-2148.7h-2834.6z"/></clipPath><clipPath id="ag"><path transform="translate(-1418.3 -1071.5)" d="m0 2148.7h2834.6v-2148.7h-2834.6z"/></clipPath><clipPath id="af"><path transform="translate(-1503.7 -1097.4)" d="m0 2148.7h2834.6v-2148.7h-2834.6z"/></clipPath><clipPath id="ae"><path transform="translate(-1513.4 -1081.3)" d="m0 2148.7h2834.6v-2148.7h-2834.6z"/></clipPath><clipPath id="ad"><path transform="translate(-1628.4 -1124.9)" d="m0 2148.7h2834.6v-2148.7h-2834.6z"/></clipPath><clipPath id="ac"><path transform="translate(-1587.6 -1123.6)" d="m0 2148.7h2834.6v-2148.7h-2834.6z"/></clipPath><clipPath id="ab"><path transform="translate(-1674.2 -1070.2)" d="m0 2148.7h2834.6v-2148.7h-2834.6z"/></clipPath><clipPath id="aa"><path transform="translate(-1665.9 -1071.5)" d="m0 2148.7h2834.6v-2148.7h-2834.6z"/></clipPath><clipPath id="z"><path transform="translate(-1735.5 -1101.8)" d="m0 2148.7h2834.6v-2148.7h-2834.6z"/></clipPath><clipPath id="y"><path transform="translate(-1721.1 -1101.1)" d="m0 2148.7h2834.6v-2148.7h-2834.6z"/></clipPath><clipPath id="x"><path transform="translate(-1837.7 -1070.2)" d="m0 2148.7h2834.6v-2148.7h-2834.6z"/></clipPath><clipPath id="w"><path transform="translate(-1791.6 -1103.5)" d="m0 2148.7h2834.6v-2148.7h-2834.6z"/></clipPath><clipPath id="v"><path transform="translate(-1915.5 -1070.2)" d="m0 2148.7h2834.6v-2148.7h-2834.6z"/></clipPath><clipPath id="u"><path transform="translate(-1873.4 -1071.5)" d="m0 2148.7h2834.6v-2148.7h-2834.6z"/></clipPath><clipPath id="t"><path transform="translate(-1952.2 -1134.4)" d="m0 2148.7h2834.6v-2148.7h-2834.6z"/></clipPath><clipPath id="s"><path transform="translate(-1960.5 -1112.6)" d="m0 2148.7h2834.6v-2148.7h-2834.6z"/></clipPath><clipPath id="r"><path transform="translate(-2076.1 -1116.9)" d="m0 2148.7h2834.6v-2148.7h-2834.6z"/></clipPath><clipPath id="q"><path transform="translate(-2053.4 -1071.5)" d="m0 2148.7h2834.6v-2148.7h-2834.6z"/></clipPath><clipPath id="p"><path transform="translate(-1526.1 -1524.7)" d="m0 2148.7h2834.6v-2148.7h-2834.6z"/></clipPath><clipPath id="o"><path transform="translate(-1685.9 -1669.9)" d="m0 2148.7h2834.6v-2148.7h-2834.6z"/></clipPath><clipPath id="n"><path transform="translate(-1573.9 -1588.7)" d="m0 2148.7h2834.6v-2148.7h-2834.6z"/></clipPath><clipPath id="m"><path transform="translate(-1127.3 -1669.9)" d="m0 2148.7h2834.6v-2148.7h-2834.6z"/></clipPath><clipPath id="l"><path transform="translate(-1239.2 -1587.1)" d="m0 2148.7h2834.6v-2148.7h-2834.6z"/></clipPath><clipPath id="k"><path transform="translate(-1379.2 -1489.2)" d="m0 2148.7h2834.6v-2148.7h-2834.6z"/></clipPath><clipPath id="j"><path transform="translate(-1096.5 -1293)" d="m0 2148.7h2834.6v-2148.7h-2834.6z"/></clipPath><clipPath id="i"><path transform="translate(-1279.6 -1293.1)" d="m0 2148.7h2834.6v-2148.7h-2834.6z"/></clipPath><clipPath id="h"><path transform="translate(-1532.2 -1293)" d="m0 2148.7h2834.6v-2148.7h-2834.6z"/></clipPath><clipPath id="g"><path transform="translate(-1933.1 -1202.5)" d="m0 2148.7h2834.6v-2148.7h-2834.6z"/></clipPath><clipPath id="f"><path transform="translate(-817.9 -1252)" d="m0 2148.7h2834.6v-2148.7h-2834.6z"/></clipPath><clipPath id="e"><path transform="translate(-1875.1 -1170.8)" d="m0 2148.7h2834.6v-2148.7h-2834.6z"/></clipPath><clipPath id="d"><path transform="translate(-1701 -1293.5)" d="m0 2148.7h2834.6v-2148.7h-2834.6z"/></clipPath><clipPath id="c"><path transform="translate(-1345.6 -1293.3)" d="m0 2148.7h2834.6v-2148.7h-2834.6z"/></clipPath><clipPath id="b"><path transform="translate(-2092.3 -1323)" d="m0 2148.7h2834.6v-2148.7h-2834.6z"/></clipPath><clipPath id="a"><path transform="translate(-2087.9 -1312.2)" d="m0 2148.7h2834.6v-2148.7h-2834.6z"/></clipPath></defs><g transform="matrix(.3122 0 0 .3122 -292.19 -105.63)"><path transform="matrix(1.3333 0 0 -1.3333 984.13 1439.1)" d="m0 0c-2.21 0-4.286 0.344-6.226 1.029-1.941 0.686-3.732 1.644-5.375 2.867-1.642 1.223-3.105 2.673-4.389 4.344s-2.373 3.464-3.269 5.376l6.718 5.553c0.418-1.016 1.089-2.165 2.016-3.448 0.924-1.286 1.955-2.509 3.091-3.673 1.133-1.165 2.342-2.137 3.627-2.913 1.283-0.775 2.552-1.163 3.807-1.163 1.97 0 3.567 0.254 4.792 0.762 1.223 0.505 2.195 1.149 2.911 1.925 0.717 0.775 1.195 1.567 1.434 2.375 0.237 0.805 0.357 1.534 0.357 2.192s-0.075 1.39-0.224 2.196c-0.148 0.808-0.552 1.67-1.209 2.599-0.657 0.925-1.656 1.864-3.001 2.82-1.343 0.956-3.21 1.911-5.598 2.867-3.463 1.433-6.301 2.79-8.51 4.076-2.209 1.283-3.956 2.566-5.239 3.852-1.285 1.283-2.182 2.597-2.688 3.94-0.508 1.343-0.762 2.79-0.762 4.346 0 1.611 0.314 3.312 0.941 5.106 0.628 1.791 1.642 3.415 3.045 4.882 1.404 1.46 3.255 2.67 5.555 3.625 2.297 0.956 5.15 1.434 8.554 1.434 4.597 0 8.39-1.12 11.376-3.359 2.986-2.238 5.285-5.389 6.897-9.449l-8.151-2.599c-1.851 4.718-5.226 7.077-10.122 7.077-2.687 0-4.688-0.508-6.001-1.524-1.315-1.015-1.972-2.359-1.972-4.029 0-1.016 0.343-1.925 1.031-2.733 0.685-0.806 1.626-1.581 2.822-2.329 1.193-0.746 2.583-1.464 4.165-2.149 1.582-0.688 3.299-1.42 5.15-2.195 3.105-1.373 5.554-2.807 7.346-4.3 1.791-1.494 3.134-3.014 4.031-4.568 0.896-1.553 1.462-3.077 1.701-4.567 0.239-1.494 0.359-2.897 0.359-4.21 0-1.376-0.3-2.987-0.895-4.838-0.598-1.852-1.613-3.615-3.046-5.286s-3.375-3.074-5.824-4.21c-2.449-1.133-5.523-1.701-9.225-1.701" clip-path="url(#ax)" fill="#ddbb52"/><path transform="matrix(1.3333 0 0 -1.3333 960.58 1421.4)" d="m0 0c0.769-1.5 1.671-2.927 2.691-4.254 1.208-1.572 2.6-2.951 4.139-4.096 1.538-1.147 3.232-2.051 5.036-2.687 1.796-0.635 3.747-0.957 5.8-0.957 3.495 0 6.419 0.533 8.687 1.584 2.271 1.052 4.083 2.359 5.391 3.881 1.312 1.531 2.254 3.161 2.799 4.846 0.553 1.72 0.834 3.216 0.834 4.445 0 1.236-0.116 2.585-0.344 4.008-0.213 1.331-0.733 2.72-1.546 4.13-0.815 1.412-2.075 2.833-3.741 4.224-1.693 1.41-4.063 2.793-7.044 4.113-1.834 0.767-3.556 1.502-5.144 2.191-1.626 0.704-3.085 1.458-4.333 2.238-1.303 0.814-2.352 1.684-3.118 2.585-0.886 1.04-1.335 2.239-1.335 3.562 0 2.08 0.83 3.777 2.468 5.042 1.558 1.204 3.776 1.79 6.783 1.79 5.057 0 8.696-2.281 10.837-6.785l5.707 1.82c-1.477 3.222-3.468 5.785-5.934 7.634-2.746 2.058-6.316 3.103-10.61 3.103-3.218 0-5.932-0.449-8.062-1.337-2.124-0.882-3.848-2.002-5.123-3.329-1.268-1.326-2.198-2.812-2.76-4.419-0.576-1.649-0.87-3.226-0.87-4.682 0-1.393 0.229-2.702 0.68-3.895 0.44-1.165 1.245-2.337 2.394-3.487 1.198-1.198 2.873-2.427 4.979-3.65 2.135-1.244 4.947-2.59 8.356-4.001 2.46-0.984 4.434-1.997 5.851-3.006 1.475-1.048 2.555-2.069 3.303-3.123 0.776-1.097 1.241-2.112 1.424-3.107 0.162-0.881 0.244-1.697 0.244-2.428 0-0.783-0.133-1.619-0.409-2.554-0.294-0.995-0.874-1.964-1.722-2.881-0.842-0.914-1.974-1.666-3.362-2.239-1.392-0.578-3.121-0.859-5.28-0.859-1.485 0-2.99 0.453-4.47 1.348-1.37 0.827-2.676 1.875-3.882 3.116-1.178 1.205-2.259 2.49-3.212 3.817-0.55 0.762-1.021 1.489-1.409 2.177zm17.666-14.552c-2.344 0-4.581 0.37-6.652 1.102-2.047 0.722-3.969 1.747-5.713 3.046-1.727 1.286-3.287 2.832-4.639 4.591-1.332 1.733-2.48 3.621-3.414 5.612l-0.42 0.899 8.819 7.291 0.661-1.606c0.378-0.92 1.008-1.992 1.87-3.186 0.881-1.226 1.879-2.411 2.969-3.527 1.056-1.086 2.189-1.998 3.372-2.712 1.076-0.649 2.134-0.98 3.147-0.98 1.791 0 3.239 0.224 4.301 0.665 1.045 0.432 1.873 0.973 2.463 1.611 0.579 0.627 0.964 1.256 1.145 1.87 0.202 0.687 0.306 1.303 0.306 1.829 0 0.575-0.068 1.236-0.203 1.964-0.114 0.614-0.448 1.317-0.996 2.092-0.569 0.802-1.477 1.649-2.697 2.516-1.253 0.892-3.047 1.808-5.332 2.722-3.53 1.461-6.445 2.857-8.679 4.158-2.298 1.335-4.149 2.699-5.502 4.055-1.407 1.406-2.411 2.884-2.978 4.391-0.56 1.481-0.844 3.096-0.844 4.799 0 1.744 0.34 3.605 1.011 5.527 0.686 1.955 1.805 3.752 3.33 5.344 1.522 1.585 3.537 2.905 5.987 3.924 2.444 1.015 5.487 1.53 9.045 1.53 4.86 0 8.946-1.215 12.145-3.614 3.162-2.371 5.625-5.736 7.318-10l0.506-1.275-10.6-3.38-0.438 1.116c-1.653 4.216-4.574 6.265-8.931 6.265-2.384 0-4.14-0.423-5.218-1.258-1.006-0.776-1.475-1.735-1.475-3.016 0-0.708 0.238-1.33 0.727-1.903 0.595-0.701 1.445-1.398 2.525-2.074 1.14-0.713 2.483-1.405 3.996-2.06 1.578-0.687 3.29-1.416 5.135-2.188 3.223-1.427 5.797-2.937 7.671-4.498 1.9-1.585 3.354-3.237 4.32-4.911 0.97-1.681 1.593-3.365 1.857-5.005 0.248-1.557 0.374-3.04 0.374-4.412 0-1.517-0.313-3.228-0.957-5.23-0.648-2.011-1.757-3.937-3.293-5.727-1.546-1.803-3.651-3.329-6.256-4.537-2.61-1.209-5.894-1.82-9.763-1.82" clip-path="url(#aw)" fill="#ddbb52"/><path transform="matrix(1.3333 0 0 -1.3333 1103 1375.7)" d="m0 0h-14.422v-46.668h-9.585v46.668h-15.944v7.972h39.951z" clip-path="url(#av)" fill="#ddbb52"/><path transform="matrix(1.3333 0 0 -1.3333 1072.7 1436.2)" d="m0 0h7.026v46.668h14.423v5.414h-37.393v-5.414h15.944zm9.584-2.558h-12.142v46.667h-15.945v10.531h42.51v-10.531h-14.423z" clip-path="url(#au)" fill="#ddbb52"/><path transform="matrix(1.3333 0 0 -1.3333 1168.2 1398.5)" d="m0 0c1.076 0 2.195 0.18 3.359 0.538 1.165 0.358 2.224 0.865 3.18 1.523 0.717 0.656 1.328 1.477 1.836 2.463s0.792 2.195 0.852 3.628c-0.12 2.984-0.867 5.133-2.24 6.449-0.956 0.716-2.254 1.313-3.896 1.791-1.644 0.478-3.509 0.716-5.599 0.716h-4.21v-17.108zm11.913-29.56-17.735 21.498h-0.896v-21.498h-9.584l-0.09 54.64h13.884c3.404 0 6.419-0.388 9.047-1.163 2.628-0.778 4.806-1.851 6.539-3.225 1.911-1.613 3.328-3.494 4.255-5.643 0.925-2.152 1.388-4.45 1.388-6.897 0.059-2.749-0.523-5.168-1.746-7.256-1.224-2.092-2.763-3.853-4.614-5.286-0.657-0.478-1.553-0.969-2.687-1.477-1.135-0.508-2.657-0.972-4.569-1.39 1.434-1.791 2.971-3.658 4.615-5.597 1.64-1.941 3.298-3.896 4.97-5.867s3.284-3.883 4.838-5.734c1.552-1.851 2.955-3.552 4.21-5.105z" clip-path="url(#at)" fill="#ddbb52"/><path transform="matrix(1.3333 0 0 -1.3333 1160.9 1396.8)" d="m0 0h5.439c0.939 0 1.944 0.162 2.984 0.482 1.033 0.318 1.985 0.773 2.828 1.354 0.463 0.438 0.989 1.147 1.425 1.995 0.419 0.815 0.658 1.856 0.71 3.096-0.105 2.522-0.726 4.398-1.847 5.471-0.711 0.521-1.884 1.055-3.367 1.487-1.517 0.44-3.279 0.664-5.241 0.664h-2.931zm5.439-2.558h-7.997v19.666h5.489c2.203 0 4.207-0.257 5.956-0.766 1.78-0.518 3.228-1.189 4.305-1.996 1.733-1.646 2.619-4.11 2.752-7.421-0.068-1.718-0.402-3.119-0.993-4.266-0.576-1.119-1.286-2.068-2.109-2.821-1.198-0.839-2.385-1.408-3.668-1.802-1.284-0.395-2.541-0.594-3.735-0.594m12.516-27.002h8.527c-0.784 0.954-1.617 1.955-2.496 3.005-1.552 1.848-3.163 3.758-4.834 5.728l-4.971 5.868c-1.651 1.947-3.196 3.824-4.636 5.623l-1.287 1.61 2.013 0.44c1.812 0.396 3.264 0.836 4.319 1.308 1.054 0.471 1.88 0.924 2.456 1.343 1.685 1.306 3.129 2.96 4.263 4.899 1.097 1.87 1.625 4.085 1.572 6.582 0 2.288-0.433 4.438-1.285 6.419-0.844 1.955-2.158 3.695-3.906 5.171-1.561 1.237-3.616 2.247-6.076 2.974-2.496 0.738-5.419 1.112-8.683 1.112h-12.603l0.086-52.082h7.028v21.498h2.778zm13.9-2.558h-15.107l-16.748 20.3v-20.3h-12.141l-0.094 57.198h15.166c3.51 0 6.675-0.408 9.408-1.215 2.777-0.822 5.122-1.982 6.972-3.448 2.084-1.759 3.632-3.816 4.636-6.141 0.991-2.303 1.492-4.793 1.492-7.403 0.064-2.95-0.583-5.618-1.921-7.904-1.301-2.221-2.961-4.121-4.935-5.65-0.76-0.554-1.714-1.081-2.947-1.632-0.781-0.35-1.728-0.679-2.833-0.985 1.058-1.299 2.168-2.636 3.331-4.008l4.971-5.867c1.673-1.973 3.287-3.885 4.842-5.737 1.557-1.86 2.966-3.566 4.225-5.125z" clip-path="url(#as)" fill="#ddbb52"/><path transform="matrix(1.3333 0 0 -1.3333 1300.2 1437.9)" d="m0 0h-43.443l-0.09 54.64h41.563v-7.972h-31.889v-13.613h29.111v-7.972h-29.111v-17.111h33.859z" clip-path="url(#ar)" fill="#ddbb52"/><path transform="matrix(1.3333 0 0 -1.3333 1243.9 1436.2)" d="m0 0h40.886v5.414h-33.858v19.669h29.11v5.414h-29.11v16.171h31.888v5.414h-39.002zm43.445-2.558h-46l-0.095 57.198h44.125v-10.531h-31.889v-11.054h29.111v-10.531h-29.111v-14.552h33.859z" clip-path="url(#aq)" fill="#ddbb52"/><path transform="matrix(1.3333 0 0 -1.3333 1348.9 1352.3)" d="m0 0 43.087-49.357v39.771h9.584v-65.121l-43.087 49.447v-38.966h-9.494z" clip-path="url(#ap)" fill="#ddbb52"/><path transform="matrix(1.3333 0 0 -1.3333 1360 1381.4)" d="m0 0 43.087-49.447v60.425h-7.026v-41.903l-43.082 49.351 0.084-59.529h6.937zm45.645-56.281-43.087 49.447v-36.828h-12.051l-0.097 68.922 43.092-49.362v37.638h12.143z" clip-path="url(#ao)" fill="#ddbb52"/><path transform="matrix(1.3333 0 0 -1.3333 1503.9 1439.2)" d="m0 0c-4.36 0-8.301 0.732-11.823 2.195-3.525 1.463-6.54 3.508-9.048 6.135-2.628 2.689-4.628 5.733-6.001 9.138-1.375 3.404-2.06 6.986-2.06 10.749 0 3.879 0.685 7.524 2.06 10.929 1.373 3.402 3.373 6.449 6.001 9.135 2.568 2.567 5.598 4.584 9.092 6.047 3.493 1.461 7.419 2.196 11.779 2.196 4.24 0 8.331-0.942 12.272-2.823 3.941-1.882 7.525-4.434 10.749-7.659l-6.001-6.448c-2.808 2.806-5.643 4.999-8.51 6.582-2.867 1.581-5.703 2.375-8.51 2.375-2.867 0-5.479-0.537-7.837-1.613-2.36-1.076-4.405-2.523-6.136-4.344-1.734-1.824-3.091-3.972-4.076-6.449-0.986-2.479-1.479-5.122-1.479-7.928 0-2.807 0.493-5.436 1.479-7.882 0.985-2.449 2.342-4.584 4.076-6.405 1.731-1.824 3.776-3.271 6.136-4.344 2.358-1.076 4.97-1.614 7.837-1.614h0.986c1.791 0 3.583 0.284 5.374 0.852 1.791 0.565 3.373 1.343 4.748 2.329 1.373 0.986 2.493 2.149 3.358 3.492 0.866 1.346 1.3 2.823 1.3 4.434v4.57h-16.214v7.972h25.888v-13.258c0-1.971-0.538-4.029-1.613-6.181-1.075-2.148-2.687-4.12-4.837-5.911s-4.808-3.284-7.972-4.48c-3.166-1.193-6.808-1.791-10.928-1.791z" clip-path="url(#an)" fill="#ddbb52"/><path transform="matrix(1.3333 0 0 -1.3333 1503.9 1365.6)" d="m0 0c-4.162 0-7.96-0.706-11.285-2.097-3.32-1.389-6.24-3.332-8.681-5.771-2.486-2.542-4.413-5.476-5.72-8.71-1.305-3.232-1.967-6.748-1.967-10.45 0-3.582 0.662-7.037 1.967-10.269 1.304-3.232 3.231-6.167 5.73-8.724 2.383-2.495 5.281-4.459 8.623-5.846 3.35-1.393 7.163-2.098 11.333-2.098h0.09c3.943 0 7.469 0.576 10.476 1.709 3.017 1.14 5.575 2.576 7.605 4.266 2.003 1.668 3.521 3.519 4.512 5.5 0.98 1.963 1.478 3.849 1.478 5.609v11.979h-23.33v-5.414h16.214v-5.85c0-1.851-0.505-3.575-1.503-5.126-0.948-1.471-2.188-2.763-3.687-3.84-1.484-1.063-3.203-1.907-5.11-2.509-1.906-0.605-3.844-0.91-5.759-0.91h-0.986c-3.039 0-5.854 0.581-8.368 1.728-2.5 1.136-4.697 2.693-6.533 4.628-1.834 1.924-3.293 4.216-4.336 6.807-1.042 2.587-1.57 5.401-1.57 8.36 0 2.957 0.527 5.783 1.569 8.401 1.043 2.62 2.502 4.927 4.338 6.858 1.835 1.931 4.032 3.487 6.532 4.627 5.003 2.282 11.364 2.576 17.497-0.806 2.634-1.456 5.269-3.427 7.846-5.872l4.255 4.571c-2.879 2.71-6.073 4.911-9.509 6.55-3.751 1.791-7.694 2.699-11.721 2.699m0.09-56.524h-0.09c-4.509 0-8.652 0.772-12.315 2.292-3.672 1.525-6.862 3.69-9.482 6.434-2.723 2.786-4.833 6.001-6.261 9.542-1.43 3.539-2.153 7.316-2.153 11.228 0 4.031 0.723 7.87 2.153 11.408 1.43 3.546 3.541 6.759 6.272 9.551 2.687 2.686 5.884 4.813 9.512 6.334 7.205 3.013 16.814 3.301 25.098-0.654 4.054-1.936 7.791-4.596 11.102-7.908l0.873-0.874-7.746-8.323-0.938 0.938c-2.707 2.707-5.474 4.849-8.223 6.367-5.433 2.996-10.92 2.667-15.198 0.718-2.201-1.003-4.131-2.369-5.74-4.061-1.61-1.694-2.893-3.726-3.814-6.041-0.922-2.315-1.389-4.824-1.389-7.455 0-2.63 0.467-5.122 1.386-7.404 0.923-2.291 2.206-4.31 3.817-6.001 1.609-1.696 3.539-3.061 5.739-4.061 2.18-0.994 4.638-1.499 7.307-1.499h0.986c1.651 0 3.331 0.267 4.988 0.793 1.649 0.52 3.126 1.242 4.389 2.149 1.235 0.887 2.255 1.945 3.027 3.145 0.738 1.145 1.097 2.37 1.097 3.74v3.291h-16.214v10.531h28.446v-14.537c0-2.161-0.588-4.433-1.748-6.753-1.15-2.299-2.886-4.427-5.162-6.322-2.25-1.874-5.055-3.454-8.339-4.695-3.298-1.243-7.128-1.873-11.38-1.873" clip-path="url(#am)" fill="#ddbb52"/><path transform="matrix(1.3333 0 0 -1.3333 1632.9 1375.7)" d="m0 0h-14.422v-46.668h-9.585v46.668h-15.944v7.972h39.951z" clip-path="url(#al)" fill="#ddbb52"/><path transform="matrix(1.3333 0 0 -1.3333 1602.6 1436.2)" d="m0 0h7.026v46.668h14.423v5.414h-37.393v-5.414h15.944zm9.584-2.558h-12.142v46.667h-15.945v10.531h42.51v-10.531h-14.423z" clip-path="url(#ak)" fill="#ddbb52"/><path transform="matrix(1.3333 0 0 -1.3333 1741.3 1437.9)" d="m0 0h-9.673v25.083h-30.905v-25.083h-9.494l-0.09 54.64h9.584v-21.585h30.905v21.585h9.673z" clip-path="url(#aj)" fill="#ddbb52"/><path transform="matrix(1.3333 0 0 -1.3333 1730.2 1436.2)" d="m0 0h7.115v52.082h-7.115v-21.585h-33.463v21.585h-7.023l0.086-52.082h6.937v25.083h33.463zm9.673-2.558h-12.231v25.082h-28.347v-25.082h-12.051l-0.094 57.198h12.145v-21.585h28.347v21.585h12.231z" clip-path="url(#ai)" fill="#ddbb52"/><path transform="matrix(1.3333 0 0 -1.3333 1947.3 1437.9)" d="m0 0h-43.446l-0.09 54.64h41.565v-7.972h-31.889v-13.613h29.112v-7.972h-29.112v-17.111h33.86z" clip-path="url(#ah)" fill="#ddbb52"/><path transform="matrix(1.3333 0 0 -1.3333 1891.1 1436.2)" d="m0 0h40.889v5.414h-33.86v19.669h29.112v5.414h-29.112v16.171h31.889v5.414h-39.004zm43.447-2.558h-46.003l-0.094 57.198h44.126v-10.531h-31.889v-11.054h29.112v-10.531h-29.112v-14.552h33.86z" clip-path="url(#ag)" fill="#ddbb52"/><path transform="matrix(1.3333 0 0 -1.3333 2004.9 1401.6)" d="m0 0c0-3.943 0.879-7.481 2.643-10.615 1.761-3.134 4.253-5.57 7.478-7.301l-0.09 0.09c1.433-0.778 2.97-1.373 4.614-1.791 1.641-0.42 3.238-0.628 4.791-0.628 2.807 0 5.406 0.538 7.795 1.614 2.386 1.073 4.448 2.52 6.179 4.344 1.733 1.821 3.077 3.956 4.032 6.405 0.956 2.446 1.434 5.075 1.434 7.882s-0.478 5.449-1.434 7.928c-0.955 2.477-2.299 4.625-4.032 6.449-1.731 1.821-3.793 3.268-6.179 4.344-2.389 1.076-4.988 1.614-7.795 1.614-2.806 0-5.389-0.538-7.748-1.614s-4.404-2.523-6.135-4.344c-1.733-1.824-3.09-3.972-4.076-6.449-0.986-2.479-1.477-5.121-1.477-7.928m46.578-42.28c-2.389 0.598-5.106 1.433-8.15 2.509-3.047 1.073-6.181 2.255-9.406 3.538-3.224 1.283-6.449 2.657-9.676 4.12-3.224 1.464-6.211 2.927-8.955 4.39-2.749 1.461-5.168 2.881-7.257 4.254-2.091 1.373-3.614 2.596-4.567 3.672l0.09-0.09c-2.509 2.629-4.524 5.657-6.048 9.092-1.523 3.434-2.285 7.033-2.285 10.795 0 3.88 0.732 7.508 2.195 10.883 1.464 3.374 3.539 6.405 6.225 9.091h-0.087c2.506 2.629 5.537 4.674 9.091 6.138 3.552 1.46 7.448 2.195 11.688 2.195 4.3 0 8.197-0.735 11.691-2.195 3.492-1.464 6.523-3.509 9.092-6.138 2.626-2.686 4.658-5.717 6.091-9.091 1.433-3.375 2.149-7.003 2.149-10.883 0-3.822-0.702-7.434-2.105-10.839-1.404-3.405-3.419-6.419-6.045-9.048-1.614-1.611-3.465-3.061-5.553-4.344-2.092-1.286-4.33-2.255-6.719-2.91 3.522-1.671 6.97-3.137 10.344-4.39 3.375-1.253 6.108-1.912 8.197-1.972z" clip-path="url(#af)" fill="#ddbb52"/><path transform="matrix(1.3333 0 0 -1.3333 2017.8 1423.2)" d="m0 0 0.939-0.505c1.328-0.721 2.781-1.285 4.319-1.675 4.277-1.096 8.309-0.635 11.746 0.912 2.228 1.002 4.17 2.367 5.776 4.057 1.61 1.691 2.877 3.706 3.769 5.99 0.892 2.287 1.346 4.781 1.346 7.417s-0.455 5.148-1.349 7.468c-0.89 2.307-2.157 4.336-3.765 6.027-1.605 1.689-3.549 3.055-5.777 4.059-4.419 1.99-10.122 1.99-14.487 2e-3 -2.199-1.003-4.131-2.37-5.739-4.061-1.609-1.694-2.892-3.725-3.814-6.04-0.92-2.313-1.387-4.822-1.387-7.455 0-3.705 0.834-7.065 2.479-9.988 1.442-2.567 3.439-4.65 5.944-6.208m7.372-6.864-7.558 4.016c-3.426 1.839-6.114 4.464-7.988 7.802-1.864 3.309-2.807 7.092-2.807 11.242 0 2.958 0.527 5.785 1.567 8.401 1.043 2.619 2.503 4.926 4.339 6.858 1.834 1.93 4.031 3.486 6.53 4.626 5.031 2.294 11.509 2.294 16.6 3e-3 2.532-1.141 4.745-2.699 6.58-4.629 1.841-1.937 3.287-4.248 4.3-6.871 1.007-2.614 1.518-5.437 1.518-8.388 0-2.956-0.511-5.764-1.521-8.348-1.011-2.595-2.458-4.89-4.297-6.821-1.834-1.933-4.049-3.491-6.581-4.63-3.764-1.696-8.128-2.248-12.714-1.228zm-17.496 4.052c0.875-0.969 2.307-2.111 4.259-3.391 2.061-1.356 4.467-2.766 7.155-4.194 2.699-1.438 5.687-2.905 8.883-4.354 3.201-1.452 6.438-2.83 9.621-4.097 3.26-1.297 6.408-2.482 9.357-3.521 2.333-0.823 4.492-1.512 6.446-2.054v5.928c-2.022 0.23-4.445 0.877-7.362 1.959-3.368 1.251-6.883 2.743-10.449 4.434l-3.115 1.479 3.325 0.912c2.262 0.619 4.411 1.55 6.388 2.767 1.99 1.221 3.778 2.621 5.319 4.158 2.495 2.498 4.434 5.402 5.765 8.63 1.334 3.234 2.01 6.716 2.01 10.352 0 3.691-0.69 7.184-2.048 10.383-1.364 3.209-3.324 6.135-5.828 8.697-2.435 2.492-5.352 4.461-8.671 5.851-3.327 1.391-7.094 2.096-11.196 2.096-4.047 0-7.814-0.707-11.201-2.099-2.782-1.145-5.25-2.683-7.358-4.58l-1.229-1.279c-2.559-2.56-4.563-5.485-5.956-8.696-1.387-3.197-2.09-6.688-2.09-10.373 0-3.565 0.734-7.023 2.176-10.277 1.456-3.28 3.408-6.217 5.803-8.727zm48.279-24.912-1.591 0.399c-2.424 0.606-5.205 1.462-8.264 2.543-2.981 1.05-6.162 2.245-9.453 3.556-3.221 1.282-6.494 2.676-9.731 4.143-3.246 1.474-6.285 2.964-9.029 4.427-2.756 1.463-5.231 2.916-7.358 4.314-2.21 1.451-3.788 2.725-4.822 3.892l2e-3 2e-3c-2.546 2.697-4.621 5.834-6.171 9.33-1.589 3.583-2.395 7.389-2.395 11.314 0 4.038 0.774 7.871 2.3 11.391 1.138 2.623 2.647 5.07 4.501 7.304h-0.09l1.974 2.162c2.618 2.745 5.825 4.912 9.531 6.438 3.698 1.521 7.794 2.291 12.176 2.291 4.443 0 8.542-0.772 12.185-2.294 3.636-1.525 6.836-3.686 9.512-6.424 2.727-2.789 4.865-5.981 6.354-9.486 1.494-3.515 2.25-7.344 2.25-11.382 0-3.972-0.74-7.783-2.201-11.327-1.46-3.542-3.587-6.727-6.323-9.464-1.682-1.68-3.63-3.204-5.788-4.531-1.256-0.771-2.574-1.44-3.944-1.998 2.503-1.118 4.963-2.127 7.345-3.012 3.231-1.2 5.85-1.836 7.788-1.892l1.242-0.035z" clip-path="url(#ae)" fill="#ddbb52"/><path transform="matrix(1.3333 0 0 -1.3333 2171.1 1365.1)" d="m0 0v-36.724c0-3.167-0.491-5.944-1.477-8.33-0.986-2.392-2.389-4.36-4.21-5.914-1.821-1.553-4.003-2.716-6.539-3.492-2.539-0.775-5.359-1.165-8.464-1.165-3.047 0-5.867 0.39-8.466 1.165-2.596 0.776-4.838 1.939-6.719 3.492-1.881 1.554-3.375 3.522-4.478 5.914-1.105 2.386-1.657 5.163-1.657 8.33v36.724h9.763v-37.082c0-1.733 0.328-3.257 0.986-4.57s1.523-2.419 2.599-3.315c1.073-0.895 2.296-1.567 3.672-2.015 1.374-0.447 2.807-0.671 4.3-0.671 1.491 0 2.911 0.207 4.254 0.628 1.343 0.417 2.509 1.043 3.495 1.881 0.983 0.835 1.758 1.925 2.329 3.268 0.565 1.343 0.849 2.94 0.849 4.794v37.082z" clip-path="url(#ad)" fill="#ddbb52"/><path transform="matrix(1.3333 0 0 -1.3333 2116.8 1366.8)" d="m0 0v-35.445c0-2.966 0.519-5.589 1.54-7.792 1.014-2.201 2.404-4.039 4.131-5.465 1.736-1.434 3.847-2.529 6.27-3.253 4.997-1.488 11.411-1.462 16.19-1e-3 2.36 0.721 4.406 1.811 6.083 3.241 1.657 1.414 2.955 3.241 3.856 5.427 0.916 2.219 1.382 4.857 1.382 7.843v35.445h-7.205v-35.803c0-2.013-0.32-3.793-0.949-5.291-0.649-1.526-1.549-2.786-2.68-3.746-1.108-0.943-2.435-1.66-3.944-2.128-2.905-0.909-6.338-0.925-9.33 0.049-1.522 0.496-2.901 1.252-4.095 2.249-1.203 1.002-2.187 2.255-2.923 3.724-0.744 1.485-1.121 3.214-1.121 5.143v35.803zm20.041-55.625c-3.149 0-6.12 0.409-8.832 1.219-2.755 0.821-5.166 2.077-7.168 3.73-2.025 1.673-3.648 3.815-4.825 6.365-1.178 2.541-1.774 5.524-1.774 8.866v38.003h12.321v-38.361c0-1.526 0.287-2.871 0.851-3.997 0.577-1.151 1.342-2.128 2.274-2.905 0.943-0.787 2.037-1.387 3.249-1.781 2.49-0.812 5.372-0.793 7.776-0.038 1.178 0.365 2.203 0.916 3.048 1.634 0.823 0.7 1.489 1.64 1.979 2.793 0.496 1.178 0.748 2.623 0.748 4.294v38.361h12.322v-38.003c0-3.323-0.53-6.29-1.574-8.819-1.057-2.565-2.591-4.717-4.562-6.398-1.944-1.659-4.298-2.917-6.995-3.742-2.655-0.811-5.628-1.221-8.838-1.221" clip-path="url(#ac)" fill="#ddbb52"/><path transform="matrix(1.3333 0 0 -1.3333 2232.3 1437.9)" d="m0 0h-9.583l-0.09 54.64h9.673z" clip-path="url(#ab)" fill="#ddbb52"/><path transform="matrix(1.3333 0 0 -1.3333 2221.2 1436.2)" d="m0 0h7.026v52.082h-7.112zm9.584-2.558h-12.139l-0.095 57.198h12.234z" clip-path="url(#aa)" fill="#ddbb52"/><path transform="matrix(1.3333 0 0 -1.3333 2314 1395.8)" d="m0 0c1.614 1.133 2.509 3.104 2.689 5.911-0.123 3.104-0.868 5.313-2.241 6.629-0.956 0.715-2.255 1.313-3.896 1.791-1.644 0.478-3.539 0.715-5.687 0.715h-6.539v-17.107h9.135c1.076 0 2.195 0.164 3.361 0.491 1.163 0.328 2.222 0.852 3.178 1.57m6.629 18.631c1.851-1.553 3.238-3.405 4.166-5.553 0.926-2.152 1.387-4.481 1.387-6.987 0.06-2.689-0.538-5.078-1.791-7.167-1.253-2.091-2.806-3.852-4.657-5.285-0.538-0.418-1.18-0.852-1.925-1.3-0.748-0.448-1.718-0.849-2.913-1.209-1.194-0.358-2.641-0.656-4.344-0.896-1.701-0.238-3.716-0.358-6.045-0.358h-6.181v-21.497h-9.586l-0.09 54.639h16.215c3.522 0 6.582-0.387 9.181-1.163 2.597-0.778 4.762-1.851 6.493-3.224z" clip-path="url(#z)" fill="#ddbb52"/><path transform="matrix(1.3333 0 0 -1.3333 2294.8 1396.8)" d="m0 0h7.856c0.953 0 1.967 0.15 3.014 0.444 1.002 0.282 1.931 0.741 2.756 1.361l0.033 0.024c1.273 0.893 1.995 2.557 2.149 4.946-0.111 2.616-0.733 4.553-1.851 5.623-0.71 0.52-1.883 1.054-3.368 1.487-1.516 0.44-3.309 0.664-5.329 0.664h-5.26zm7.856-2.558h-10.414v19.666h7.818c2.262 0 4.296-0.257 6.044-0.766 1.782-0.519 3.23-1.191 4.306-1.996 1.753-1.667 2.615-4.121 2.753-7.602-0.207-3.324-1.288-5.634-3.214-6.997-1.077-0.805-2.283-1.4-3.585-1.766-1.274-0.359-2.522-0.539-3.708-0.539m-17.443-27.002h7.029v21.498h7.46c2.253 0 4.226 0.117 5.867 0.345 1.636 0.231 3.034 0.519 4.154 0.855 1.09 0.329 1.973 0.692 2.624 1.081 0.693 0.417 1.294 0.822 1.797 1.212 1.72 1.332 3.182 2.992 4.345 4.934 1.122 1.87 1.664 4.05 1.609 6.48 0 2.35-0.433 4.53-1.283 6.51-0.786 1.818-1.952 3.425-3.467 4.779h-0.06l-0.35 0.277c-1.59 1.262-3.631 2.272-6.064 3.001-2.467 0.736-5.433 1.11-8.814 1.11h-14.933zm9.587-2.558h-12.143l-0.094 57.198h17.497c3.63 0 6.842-0.408 9.547-1.216 2.572-0.77 4.777-1.837 6.562-3.172h0.03l0.448-0.299c1.993-1.673 3.514-3.7 4.519-6.025 0.989-2.302 1.49-4.823 1.49-7.495 0.066-2.892-0.598-5.534-1.972-7.824-1.327-2.216-3.001-4.114-4.972-5.64-0.572-0.443-1.255-0.908-2.049-1.385-0.845-0.505-1.892-0.942-3.204-1.338-1.245-0.373-2.77-0.688-4.533-0.937-1.76-0.245-3.854-0.369-6.224-0.369h-4.902z" clip-path="url(#y)" fill="#ddbb52"/><path transform="matrix(1.3333 0 0 -1.3333 2450.3 1437.9)" d="m0 0h-10.211l-2.867 27.411-16.482-36.997-15.854 38.07-2.957-28.484h-10.479l10.479 60.373 19.349-48.729c0-0.06 0.388 0.792 1.166 2.553 0.775 1.761 1.774 4.076 3 6.943 1.223 2.867 2.627 6.091 4.21 9.673 1.581 3.585 3.164 7.181 4.748 10.796 1.581 3.612 3.091 7.076 4.524 10.391 1.431 3.314 2.654 6.104 3.672 8.373z" clip-path="url(#x)" fill="#ddbb52"/><path transform="matrix(1.3333 0 0 -1.3333 2388.8 1393.6)" d="m0 0 16.592-39.839 17.166 38.533 3.216-30.762h7.791l-6.993 54.805c-0.597-1.363-1.244-2.853-1.939-4.465-1.435-3.317-2.946-6.783-4.527-10.397-1.585-3.616-3.168-7.213-4.749-10.798-1.582-3.578-2.983-6.798-4.205-9.66-1.228-2.873-2.229-5.192-3.006-6.956-1.522-3.444-1.523-3.449-2.498-3.239l-0.624 0.131-18.03 45.407-9.516-54.828h7.994zm16.518-45.846-15.117 36.301-2.586-24.901h-12.963l11.441 65.919 19.876-50.056c0 1e-3 1e-3 3e-3 1e-3 4e-3 0.774 1.757 1.772 4.068 2.995 6.929 1.225 2.871 2.631 6.099 4.217 9.687 1.58 3.583 3.163 7.178 4.745 10.791 1.581 3.611 3.09 7.074 4.523 10.387 1.432 3.32 2.658 6.115 3.679 8.389l1.728 3.852 8.408-65.902h-12.632l-2.517 24.062z" clip-path="url(#w)" fill="#ddbb52"/><path transform="matrix(1.3333 0 0 -1.3333 2554.1 1437.9)" d="m0 0h-43.446l-0.09 54.64h41.565v-7.972h-31.889v-13.613h29.112v-7.972h-29.112v-17.111h33.86z" clip-path="url(#v)" fill="#ddbb52"/><path transform="matrix(1.3333 0 0 -1.3333 2497.8 1436.2)" d="m0 0h40.889v5.414h-33.86v19.669h29.112v5.414h-29.112v16.171h31.889v5.414h-39.004zm43.447-2.558h-46.002l-0.095 57.198h44.126v-10.531h-31.889v-11.054h29.112v-10.531h-29.112v-14.552h33.86z" clip-path="url(#u)" fill="#ddbb52"/><path transform="matrix(1.3333 0 0 -1.3333 2602.9 1352.3)" d="m0 0 43.086-49.357v39.771h9.583v-65.121l-43.086 49.447v-38.966h-9.496z" clip-path="url(#t)" fill="#ddbb52"/><path transform="matrix(1.3333 0 0 -1.3333 2614 1381.4)" d="m0 0 43.086-49.447v60.425h-7.025v-41.903l-43.08 49.351 0.08-59.529h6.939zm45.644-56.281-43.086 49.447v-36.828h-12.052l-0.095 68.922 43.091-49.362v37.638h12.142z" clip-path="url(#s)" fill="#ddbb52"/><path transform="matrix(1.3333 0 0 -1.3333 2768.2 1375.7)" d="m0 0h-14.421v-46.668h-9.583v46.668h-15.944v7.972h39.948z" clip-path="url(#r)" fill="#ddbb52"/><path transform="matrix(1.3333 0 0 -1.3333 2737.9 1436.2)" d="m0 0h7.025v46.668h14.421v5.414h-37.39v-5.414h15.944zm9.583-2.558h-12.141v46.667h-15.945v10.531h42.507v-10.531h-14.421z" clip-path="url(#q)" fill="#ddbb52"/><path transform="matrix(1.3333 0 0 -1.3333 2034.8 831.94)" d="m0 0c-12.915 6.802-25.576 12.276-37.921 16.639 16.328 20.326 27.049 41.279 34.082 60.521 16.841-4.333 34.101-9.741 51.689-16.4-11.995-23.433-28.319-44.076-47.85-60.76m-238.28-1.868c3.398 2.103 16.163 9.582 36.069 16.593 17.534-21.499 41.381-42.232 73.82-59.414-41.391 1.828-79.386 17.555-109.89 42.821m-50.304 63.01c5.142 2.279 23.046 9.769 50.727 16.835 6.901-19.316 17.522-40.435 33.79-60.952-21.667-7.731-34.79-15.925-36.488-17.018-19.632 16.772-36.017 37.549-48.029 61.135m48.834 249.24c3.548-2.194 16.638-9.847 37.016-16.982-13.298-16.735-25.557-37.307-34.309-62.276-28.447 7.202-46.742 14.906-51.71 17.117 12.189 24.044 28.923 45.173 49.003 62.141m287.78-61.77c-17.781-6.739-35.224-12.195-52.241-16.557-8.751 24.859-20.973 45.351-34.227 62.031 12.231 4.294 24.773 9.677 37.567 16.362 20.012-16.893 36.712-37.912 48.901-61.836m-106.21-157.95c4.06 20.412 5.892 39.99 6.128 58.502l58.599-0.967c0.014-11.155-1.343-37.052-12.151-67.714-18.049 4.541-35.614 7.871-52.576 10.179m-19.434-63.406c8.677 20.811 14.79 41.105 18.856 60.667 16.839-2.286 34.28-5.586 52.2-10.085-7.034-19.153-17.786-40.015-34.179-60.225-12.665 4.318-24.985 7.471-36.877 9.643m37.808-12.927c12.192-4.256 24.701-9.613 37.464-16.27-30.976-25.629-69.673-41.401-111.8-42.805 32.605 17.041 56.63 37.654 74.332 59.075m-76.186-56.881c15.68 22.765 27.94 45.239 37.289 67.155 11.634-2.096 23.681-5.125 36.07-9.294-17.526-20.996-41.258-41.173-73.359-57.861m-46.857 67.498c9.404-22.237 21.782-45.052 37.706-68.17-32.641 16.969-56.621 37.545-74.23 58.921 10.454 3.535 22.725 6.871 36.524 9.249m-19.78 63.498c3.999-19.612 10.065-39.972 18.695-60.854-14.14-2.476-26.685-5.94-37.327-9.59-16.332 20.402-26.963 41.433-33.863 60.661 14.948 3.712 32.595 7.247 52.495 9.783m-64.946 63.949 58.457-0.966c0.069-19.013 1.811-39.184 5.918-60.247-20.035-2.563-37.799-6.131-52.845-9.876-12.392 35.997-11.811 65.157-11.53 71.089m65.068 65.638c-3.879-19.133-6.494-40.569-6.611-63.806l-58.345 0.964c0.604 27.525 5.17 51.617 12.257 72.605 15.045-3.714 32.741-7.241 52.699-9.763m19.928 65.041c-5.984-14.514-11.657-30.832-16.204-48.669-1.119-4.391-2.18-8.941-3.17-13.629-19.807 2.495-37.393 5.983-52.333 9.662 8.774 24.923 21.077 45.39 34.387 61.99 10.687-3.594 23.232-6.967 37.32-9.354m-38.289 12.625c-19.322 6.676-32.156 13.893-36.589 16.565 30.845 25.267 69.253 40.802 111.03 42.201-12.433-5.77-45.557-23.423-74.443-58.766m75.77 56.302c-6.526-9.102-22.182-32.574-36.385-66.295-13.765 2.292-26.046 5.549-36.551 9.032 28.517 34.571 60.999 51.747 72.936 57.263m11.864 2.441c41.378-1.582 79.412-17.037 110.02-42.06-12.63-6.536-25.012-11.806-37.08-15.993-27.802 34.016-59.52 51.639-72.938 58.053m33.684-68.303c-14.229 33.85-29.945 57.411-36.487 66.535 11.935-5.516 44.407-22.69 72.92-57.262-12.521-4.187-24.687-7.2-36.433-9.273m20.393-64.814c-0.998 4.731-2.067 9.324-3.195 13.753-4.52 17.732-10.154 33.961-16.098 48.411 11.992 2.148 24.419 5.276 37.203 9.606 13.26-16.541 25.522-36.923 34.291-61.729-17.922-4.482-35.364-7.77-52.201-10.041m0.55-2.722c16.966 2.294 34.526 5.587 52.583 10.114 7.29-21.503 11.953-46.259 12.405-74.645 9e-3 -0.112 0.085-1.191 0.131-3.075l-58.53 0.967c0.099 24.325-2.56 46.729-6.589 66.639m-60.258-65.536v61.234c18.175 0.143 37.39 1.321 57.481 3.918 4.011-19.769 6.655-42.032 6.558-66.209zm0-58.046v55.248l64.013-1.057c-0.235-18.402-2.082-37.877-6.131-58.177-20.228 2.632-39.59 3.841-57.882 3.986m0-63.769v60.98c18.115-0.145 37.288-1.344 57.319-3.942-4.07-19.521-10.16-39.771-18.867-60.548-13.411 2.291-26.269 3.367-38.452 3.51m0-2.796c11.827-0.142 24.297-1.17 37.3-3.354-9.37-21.858-21.573-44.264-37.3-66.971zm-3.405 0.01v-71.007c-15.965 23.051-28.31 45.794-37.733 67.965 11.599 1.858 24.233 3.013 37.733 3.042m0 63.773v-60.977c-13.919-0.031-26.935-1.243-38.859-3.189-8.658 20.843-14.697 41.154-18.702 60.723 17.577 2.132 36.864 3.461 57.561 3.443m0 58.087v-55.298c-20.903 0.016-40.378-1.332-58.122-3.495-4.093 20.926-5.844 40.966-5.918 59.85zm-0.383 63.937c0.126 0 0.257 4e-3 0.383 4e-3v-61.143l-64.056 1.057c0.112 23.148 2.735 44.485 6.606 63.518 17.462-2.103 36.56-3.436 57.067-3.436m0.383 65.362v-62.557c-20.435-0.017-39.501 1.275-56.898 3.361 0.96 4.529 1.987 8.926 3.069 13.175 4.58 17.99 10.311 34.424 16.348 49.001 11.549-1.818 24.092-2.95 37.481-2.98m0 2.799c-12.976 0.028-25.148 1.098-36.374 2.832 14.448 34.138 30.351 57.58 36.374 65.892zm3.405 0.01v69.387c6.04-8.334 22.012-31.885 36.491-66.173-12.712-2.092-24.908-3.075-36.491-3.214m0-2.776c11.925 0.139 24.488 1.163 37.591 3.354 5.997-14.511 11.686-30.855 16.238-48.735 1.092-4.29 2.128-8.734 3.096-13.31-19.888-2.562-38.929-3.747-56.925-3.892zm-171.11-33.931c4.926-2.197 23.325-9.97 52.027-17.251-7.126-21.189-11.713-45.49-12.311-73.239l-60.634 1.001c0.209 32.2 7.747 62.593 20.918 89.489m-20.917-92.287 60.519-0.999c-0.287-6.158-0.831-35.549 11.608-71.824-27.881-7.131-45.901-14.682-51.042-16.964-13.269 26.968-20.867 57.466-21.085 89.787m359.99-90.157c-17.684 6.706-35.04 12.154-51.977 16.52 10.845 30.897 12.234 57.005 12.226 68.35l60.865-1.005c-1.099-30.135-8.6-58.563-21.114-83.865m21.182 86.661-60.966 1.007c-0.047 2.008-0.128 3.151-0.137 3.26-0.455 28.583-5.139 53.527-12.467 75.214 17.126 4.398 34.671 9.872 52.56 16.664 13.471-27.369 21.129-58.37 21.129-91.227 0-1.649-0.081-3.278-0.119-4.918m2.775-0.84c0.052 1.918 0.14 3.827 0.14 5.758 0 63.793-28.339 120.76-72.495 157.92-7e-3 0.016-6e-3 0.034-0.014 0.05-0.192 0.361-0.52 0.595-0.886 0.691-33.016 27.45-74.726 43.907-120.06 43.907-0.018 0-0.034-1e-3 -0.051-1e-3 -6e-3 -1e-3 -0.012-1e-3 -0.018-1e-3 -45.321-0.017-87.016-16.477-120.02-43.926-0.303-0.089-0.583-0.263-0.774-0.546-0.028-0.043-0.032-0.092-0.056-0.137-20.757-17.457-38.004-39.287-50.469-64.157-0.137-0.121-0.253-0.269-0.337-0.443-0.08-0.166-0.12-0.341-0.131-0.514-13.768-27.826-21.598-59.37-21.602-92.811 0-2e-3 -1e-3 -3e-3 -1e-3 -4e-3s1e-3 -2e-3 1e-3 -2e-3c0-7e-3 -1e-3 -0.014-1e-3 -0.021 0-33.483 7.846-65.065 21.642-92.919-0.051-0.281-0.042-0.575 0.092-0.852 0.136-0.283 0.366-0.478 0.625-0.613 32.119-63.575 95.587-107.18 168.72-108.12 0.383-0.192 0.752-0.39 1.138-0.581 1e-3 -1e-3 2e-3 -1e-3 3e-3 -2e-3 5e-3 -2e-3 0.01-5e-3 0.014-7e-3 0.2-0.1 0.411-0.146 0.62-0.146h1e-3c0.142 0 0.284 0.022 0.425 0.067 0.049 0.015 0.073 0.065 0.119 0.086 0.155 0.067 0.277 0.166 0.4 0.287 0.082 0.08 0.161 0.144 0.221 0.241 2e-3 3e-3 5e-3 4e-3 6e-3 7e-3 104.18 0.315 189.2 87.297 192.72 195.57 0.097 0.187 0.165 0.39 0.169 0.615 4e-3 0.219-0.053 0.42-0.14 0.606" clip-path="url(#p)"/><path transform="matrix(1.3333 0 0 -1.3333 2247.9 638.33)" d="m0 0s-6.156-56.017-18.775-98.184-39.705-97.569-39.705-97.569l14.466 69.868-16.928 10.772s34.472 29.24 60.942 115.11" clip-path="url(#o)"/><path transform="matrix(1.3333 0 0 -1.3333 2098.6 746.61)" d="m0 0-23.695-70.56-59.097-18.739 41.396-26.814-24.542-70.407 50.554 57.249 30.932-20.314-3.001 59.326s34.3 42.984 39.888 57.041l-42.196-20.799z" clip-path="url(#n)"/><path transform="matrix(1.3333 0 0 -1.3333 1503 638.33)" d="m0 0s6.156-56.017 18.775-98.184 39.705-97.569 39.705-97.569l-14.466 69.868 16.928 10.772s-34.472 29.24-60.942 115.11" clip-path="url(#m)"/><path transform="matrix(1.3333 0 0 -1.3333 1652.3 748.72)" d="m0 0 23.695-70.561 59.097-18.738-41.396-26.814 24.542-70.407-50.554 57.249-30.932-20.314 3.001 59.326s-34.3 42.984-39.888 57.041l42.196-20.799z" clip-path="url(#l)"/><path transform="matrix(1.3333 0 0 -1.3333 1838.9 879.22)" d="m0 0 27.024 66.021 24.223-66.021 65.458 11.12-53.224-47.362 18.698-67.406-55.155 39.705-55.417-38.55 17.774 66.482-54.016 45.475 64.475-7.836" clip-path="url(#k)"/><path transform="matrix(1.3333 0 0 -1.3333 1462 1140.9)" d="m0 0c-7.927-10.363-15.257-19.894-22.521-29.475-1.844-2.432-4.394-1.802-6.767-1.806-19.447-0.039-38.895-0.022-58.342-0.023-7.153-1e-3 -14.307 0.073-21.458-0.05-2.657-0.045-5.392-0.237-7.94-0.923-4.073-1.095-5.88-3.886-5.775-7.949 0.098-3.771 1.835-6.41 5.629-7.393 2.77-0.717 5.73-0.949 8.608-0.961 19.446-0.079 38.895 0.112 58.34-0.114 8.239-0.096 16.474-0.92 24.699-1.562 1.974-0.154 3.928-0.813 5.845-1.393 17.17-5.199 25.341-17.703 23.438-35.598-1.72-16.178-10.156-27.048-25.81-31.48-7.236-2.048-14.892-3.568-22.373-3.639-37.997-0.361-75.999-0.17-114-0.159-1.259 1e-3 -2.517 0.155-4.549 0.289 1.38 2.137 2.212 3.634 3.239 4.981 5.423 7.106 11.04 14.07 16.29 21.301 2.589 3.566 5.428 5.09 10.014 5.051 27.493-0.233 54.988-0.13 82.482-0.096 3.348 4e-3 6.726 0.035 10.035 0.471 5.308 0.7 7.781 3.478 7.897 8.271 0.125 5.205-2.285 8.104-7.944 8.895-3.302 0.461-6.687 0.443-10.035 0.449-21.235 0.036-42.474-0.21-63.704 0.15-6.848 0.116-13.872 1.053-20.463 2.885-14.616 4.062-23.441 15.045-24.196 28.715-0.962 17.438 5.677 29.388 20.134 35.963 8.468 3.851 17.523 5.559 26.712 5.607 36.434 0.189 72.87 0.078 109.31 0.063 0.641 0 1.282-0.181 3.208-0.47" clip-path="url(#j)"/><path transform="matrix(1.3333 0 0 -1.3333 1706.1 1140.7)" d="m0 0c-1.267-1.906-2.135-3.376-3.161-4.727-5.675-7.477-11.565-14.8-17.007-22.442-2.367-3.323-5.047-4.33-8.966-4.308-25.262 0.143-50.526 0.089-75.789 0.054-3.348-5e-3 -6.737 0.017-10.033-0.475-4.964-0.74-7.385-3.562-7.479-7.969-0.097-4.517 2.054-7.185 7.128-8.206 2.599-0.523 5.317-0.607 7.983-0.625 23.47-0.157 46.94-0.224 70.41-0.386 8.58-0.06 16.896-1.523 24.647-5.413 10.037-5.038 15.554-13.163 16.233-24.389 0.201-3.329 0.068-6.711-0.261-10.034-1.356-13.719-8.562-23.159-21.21-28.529-8.361-3.55-17.217-5.052-26.157-5.097-38.677-0.194-77.354-0.077-116.03-0.058-0.637 0-1.273 0.189-2.521 0.386 0.81 1.505 1.336 2.884 2.193 4.011 5.819 7.649 11.826 15.157 17.515 22.9 2.373 3.229 5.115 4.289 9.063 4.267 27.498-0.151 54.997-0.096 82.496-0.058 3.57 5e-3 7.179 0.019 10.702 0.51 5.184 0.723 7.694 3.725 7.712 8.491 0.018 4.844-2.335 7.73-7.614 8.563-3.289 0.519-6.681 0.511-10.028 0.517-21.239 0.042-42.478 0.021-63.717 0.022-7.874 1e-3 -15.612 0.963-23.036 3.68-12.926 4.731-20.801 13.649-21.88 27.658-1.2 15.568 3.657 28.179 18.435 35.572 8.987 4.496 18.665 6.335 28.534 6.391 36.217 0.205 72.435 0.084 108.65 0.069 0.821 0 1.642-0.187 3.187-0.375" clip-path="url(#i)"/><path transform="matrix(1.3333 0 0 -1.3333 2042.9 1140.8)" d="m0 0c-7.823-10.258-15.138-19.777-22.355-29.368-1.642-2.183-3.826-1.94-6.038-1.941-14.308-5e-3 -28.617-3e-3 -42.925-4e-3 -12.073-1e-3 -24.146 0.074-36.217-0.051-3.318-0.034-6.728-0.284-9.917-1.118-3.763-0.984-5.361-3.724-5.342-7.543 0.019-3.739 1.761-6.544 5.429-7.537 2.76-0.748 5.723-1.012 8.597-1.024 19.45-0.085 38.903 0.131 58.351-0.125 8.683-0.114 17.43-0.597 26.005-1.876 4.941-0.737 9.903-2.848 14.309-5.316 7.845-4.394 12.654-11.386 13.366-20.484 0.414-5.298 0.43-10.78-0.456-15.996-2.025-11.935-9.223-20.046-20.269-24.826-8.338-3.609-17.196-5.184-26.13-5.235-38.676-0.22-77.354-0.095-116.03-0.079-0.825 0-1.649 0.192-3.179 0.382 1.05 1.737 1.697 3.07 2.578 4.225 5.695 7.462 11.59 14.777 17.103 22.371 2.502 3.447 5.327 4.641 9.575 4.612 27.497-0.186 54.997-0.109 82.496-0.077 3.348 4e-3 6.725 0.025 10.038 0.44 5.285 0.662 7.924 3.491 8.113 8.143 0.208 5.143-2.264 8.206-7.844 9.03-3.297 0.487-6.686 0.467-10.033 0.473-21.239 0.038-42.478 0.016-63.717 0.022-7.877 2e-3 -15.618 0.988-23.024 3.755-12.894 4.817-20.657 13.813-21.669 27.828-1.106 15.311 3.678 27.738 18.081 35.143 8.942 4.598 18.633 6.495 28.492 6.557 36.664 0.228 73.329 0.081 109.99 0.063 0.439 0 0.877-0.142 2.619-0.444" clip-path="url(#h)"/><path transform="matrix(1.3333 0 0 -1.3333 2577.5 1261.6)" d="m0 0v-30.654c-5.219-1.61-28.18-1.97-38.047-0.646-0.012 20.263-0.012 40.667 2e-3 61.944h7.703c31.728 1e-3 63.456 0.012 95.184-9e-3 5.84-5e-3 11.628 0.225 17.057 2.701 7.646 3.487 10.487 10.744 6.899 17.605-1.884 3.6-5.018 5.913-8.834 6.621-5.01 0.929-10.151 1.567-15.239 1.589-31.281 0.14-62.562 0.07-93.844 0.071h-8.08c1.433 2.293 2.115 3.614 3.007 4.773 5.996 7.788 12.127 15.475 18.011 23.347 1.902 2.545 3.892 3.761 7.191 3.745 26.589-0.126 53.181 0.15 79.766-0.176 12.097-0.148 23.972-2.252 35.109-7.489 23.747-11.168 31.009-39.039 15.707-60.379-4.748-6.62-11.285-10.655-18.759-13.424-1.236-0.458-2.468-0.926-3.687-1.427-0.169-0.07-0.248-0.36-0.682-1.037 13.119-11.746 25.019-24.825 36.53-39.166h-5.033c-12.959 0-25.92 0.109-38.877-0.071-3.461-0.048-5.811 0.994-8.007 3.689-6.913 8.484-14.121 16.726-21.113 25.147-1.942 2.339-3.84 3.952-7.23 3.917-17.203-0.177-34.408-0.105-51.612-0.141-0.653-1e-3 -1.305-0.213-3.122-0.53" clip-path="url(#g)"/><path transform="matrix(1.3333 0 0 -1.3333 1090.5 1195.6)" d="m0 0c-1.635-2.161-3.005-3.874-4.271-5.661-16.658-23.51-33.387-46.971-49.865-70.608-2.727-3.911-5.634-5.504-10.413-5.339-10.266 0.357-20.553 0.11-30.831 0.11h-6.808c1.295 2.266 2.009 3.8 2.971 5.157 24.412 34.443 48.844 68.871 73.299 103.28 1.68 2.364 3.513 4.625 5.36 6.863 10.419 12.624 31.723 13.503 42.316-0.093 6.854-8.798 13.063-18.105 19.429-27.276 18.724-26.971 37.384-53.986 56.055-80.994 1.257-1.818 2.392-3.72 3.485-5.429-0.232-0.506-0.296-0.729-0.425-0.903-0.117-0.158-0.305-0.376-0.461-0.376-45.352-0.088-90.704-0.16-136.06-0.219-1.048-2e-3 -2.097 0.156-3.91 0.3 1.172 2.023 1.9 3.558 2.874 4.917 5.204 7.262 10.666 14.35 15.632 21.77 2.439 3.645 5.304 4.688 9.512 4.606 12.731-0.249 25.471-0.09 38.207-0.09 2.219 1e-3 4.439 0 6.76 0-1.282 4.791-18.229 30.504-32.86 49.981" clip-path="url(#f)"/><path transform="matrix(1.3333 0 0 -1.3333 2500.2 1303.8)" d="m0 0h-141.75c1.045 1.85 1.658 3.213 2.513 4.402 5.475 7.619 11.171 15.086 16.434 22.848 2.199 3.243 4.803 4.034 8.44 3.991 13.183-0.155 26.37-0.061 39.555-0.061 2.169 1e-3 4.338 0 7.558 0-11.722 17.169-22.843 33.46-34.35 50.314-5.215-7.324-10.011-14.027-14.774-20.753-13.169-18.597-26.44-37.124-39.393-55.87-2.737-3.962-5.67-5.478-10.438-5.315-10.268 0.349-20.556 0.107-30.837 0.107h-6.769c1.348 2.347 2.072 3.886 3.04 5.252 24.156 34.087 48.332 68.16 72.528 102.22 1.81 2.547 3.766 4.993 5.717 7.436 10.652 13.345 32.658 13.822 43.201-0.323 5.336-7.16 10.484-14.465 15.571-21.804 19.728-28.458 39.399-56.955 59.083-85.442 1.376-1.992 2.689-4.026 4.671-7" clip-path="url(#e)"/><path transform="matrix(1.3333 0 0 -1.3333 2268.1 1140.2)" d="m0 0c-2.418-3.221-3.959-5.312-5.54-7.372-4.762-6.208-9.756-12.252-14.235-18.657-2.953-4.223-6.234-6.169-11.615-5.905-9.814 0.481-19.668 0.136-29.505 0.136h-7.612c-0.117-15.627-0.042-30.744-0.056-45.859-0.013-14.893-3e-3 -29.786-3e-3 -45.019h-37.936c-0.049 15.067-0.018 29.949-0.023 44.83-6e-3 14.958-1e-3 29.916-1e-3 45.657-18.781 0.955-37.226-0.051-56.29 0.589 0.618 1.479 0.871 2.729 1.566 3.644 6.356 8.365 12.916 16.578 19.128 25.047 2.091 2.85 4.627 2.934 7.589 2.931 33.09-0.035 66.18-0.022 99.27-0.022z" clip-path="url(#d)"/><path transform="matrix(1.3333 0 0 -1.3333 1794.1 1140.5)" d="m0 0v-121.65c-5.027-1.45-30.287-1.663-37.579-0.296v121.95z" clip-path="url(#c)"/><path transform="matrix(1.3333 0 0 -1.3333 2789.7 1100.9)" d="m0 0c-11.194 0-20.302-9.107-20.302-20.301 0-11.193 9.108-20.3 20.302-20.3s20.299 9.107 20.299 20.3c0 11.194-9.105 20.301-20.299 20.301m0-46.941c-14.691 0-26.641 11.951-26.641 26.64 0 14.69 11.95 26.641 26.641 26.641 14.688 0 26.639-11.951 26.639-26.641 0-14.689-11.951-26.64-26.639-26.64" clip-path="url(#b)"/><path transform="matrix(1.3333 0 0 -1.3333 2783.9 1115.3)" d="m0 0v-8.15h4.852c2.027 0 3.446 0.324 4.256 0.972 0.809 0.648 1.211 1.483 1.211 2.505v1.121c0 1.047-0.381 1.9-1.151 2.56-0.766 0.66-2.054 0.992-3.865 0.992zm6.046-12.15h-6.046v-10.803h-5.263v26.952h11.225c1.536 0 2.898-0.187 4.092-0.56 1.192-0.374 2.192-0.885 3.002-1.533 0.806-0.648 1.422-1.427 1.85-2.337 0.425-0.909 0.636-1.899 0.636-2.972v-1.382c0-1.421-0.385-2.699-1.151-3.832-0.766-1.135-1.921-2.012-3.453-2.636 0.987-1.968 1.951-3.918 2.897-5.85 0.947-1.932 1.911-3.882 2.898-5.85h-5.715z" clip-path="url(#a)"/></g></svg>
