<?xml version="1.0" encoding="UTF-8"?>
<svg width="594mm" height="420mm" version="1.1" viewBox="0 0 594 420" xml:space="preserve" xmlns="http://www.w3.org/2000/svg" xmlns:xlink="http://www.w3.org/1999/xlink"><defs><clipPath id="y"><path transform="translate(-269.72 -321.67)" d="M 0,595.276 H 841.89 V 0 H 0 Z"/></clipPath><clipPath id="n"><path transform="translate(-392.91 -321.67)" d="M 0,595.276 H 841.89 V 0 H 0 Z"/></clipPath><clipPath id="c"><path transform="translate(-332.61 -321.67)" d="M 0,595.276 H 841.89 V 0 H 0 Z"/></clipPath><clipPath id="an"><path transform="translate(-438.69 -321.2)" d="M 0,595.276 H 841.89 V 0 H 0 Z"/></clipPath><clipPath id="am"><path transform="translate(-419.86 -290.68)" d="M 0,595.276 H 841.89 V 0 H 0 Z"/></clipPath><clipPath id="al"><path transform="translate(-419.79 -305.9)" d="M 0,595.276 H 841.89 V 0 H 0 Z"/></clipPath><clipPath id="ak"><path transform="translate(-455.49 -290.68)" d="M 0,595.276 H 841.89 V 0 H 0 Z"/></clipPath><clipPath id="aj"><path transform="translate(-458.87 -312.31)" d="M 0,595.276 H 841.89 V 0 H 0 Z"/></clipPath><clipPath id="ai"><path transform="translate(-474.32 -321.2)" d="M 0,595.276 H 841.89 V 0 H 0 Z"/></clipPath><clipPath id="ah"><path transform="translate(-512.79 -321.2)" d="M 0,595.276 H 841.89 V 0 H 0 Z"/></clipPath><clipPath id="ag"><path transform="translate(-547.6 -312.66)" d="M 0,595.276 H 841.89 V 0 H 0 Z"/></clipPath><clipPath id="af"><path transform="translate(-528.18 -305.93)" d="M 0,595.276 H 841.89 V 0 H 0 Z"/></clipPath><clipPath id="ae"><path transform="translate(-545.07 -299.5)" d="M 0,595.276 H 841.89 V 0 H 0 Z"/></clipPath><clipPath id="ad"><path transform="translate(-580.87 -320.11)" d="M 0,595.276 H 841.89 V 0 H 0 Z"/></clipPath><clipPath id="ac"><path transform="translate(-575.03 -295.16)" d="M 0,595.276 H 841.89 V 0 H 0 Z"/></clipPath><clipPath id="ab"><path transform="translate(-413.91 -273.93)" d="M 0,595.276 H 841.89 V 0 H 0 Z"/></clipPath><clipPath id="aa"><path transform="translate(-425.3 -280.52)" d="M 0,595.276 H 841.89 V 0 H 0 Z"/></clipPath><clipPath id="z"><path transform="translate(-432.43 -275.75)" d="M 0,595.276 H 841.89 V 0 H 0 Z"/></clipPath><clipPath id="x"><path transform="translate(-440.6 -280.52)" d="M 0,595.276 H 841.89 V 0 H 0 Z"/></clipPath><clipPath id="w"><path transform="translate(-447.11 -275.71)" d="M 0,595.276 H 841.89 V 0 H 0 Z"/></clipPath><clipPath id="v"><path transform="translate(-451.23 -280.6)" d="M 0,595.276 H 841.89 V 0 H 0 Z"/></clipPath><clipPath id="u"><path transform="translate(-463.03 -280.52)" d="M 0,595.276 H 841.89 V 0 H 0 Z"/></clipPath><clipPath id="t"><path transform="translate(-473.29 -280.52)" d="M 0,595.276 H 841.89 V 0 H 0 Z"/></clipPath><clipPath id="s"><path transform="translate(-476.35 -279.09)" d="M 0,595.276 H 841.89 V 0 H 0 Z"/></clipPath><clipPath id="r"><path transform="translate(-485.96 -279.05)" d="M 0,595.276 H 841.89 V 0 H 0 Z"/></clipPath><clipPath id="q"><path transform="translate(-487.02 -273.93)" d="M 0,595.276 H 841.89 V 0 H 0 Z"/></clipPath><clipPath id="p"><path transform="translate(-494.56 -280.6)" d="M 0,595.276 H 841.89 V 0 H 0 Z"/></clipPath><clipPath id="o"><path transform="translate(-506.38 -280.52)" d="M 0,595.276 H 841.89 V 0 H 0 Z"/></clipPath><clipPath id="m"><path transform="translate(-509.43 -279.09)" d="M 0,595.276 H 841.89 V 0 H 0 Z"/></clipPath><clipPath id="l"><path transform="translate(-519.49 -275.74)" d="M 0,595.276 H 841.89 V 0 H 0 Z"/></clipPath><clipPath id="k"><path transform="translate(-529.59 -280.52)" d="M 0,595.276 H 841.89 V 0 H 0 Z"/></clipPath><clipPath id="j"><path transform="translate(-537.4 -280.52)" d="M 0,595.276 H 841.89 V 0 H 0 Z"/></clipPath><clipPath id="i"><path transform="translate(-537.98 -273.93)" d="M 0,595.276 H 841.89 V 0 H 0 Z"/></clipPath><clipPath id="h"><path transform="translate(-549.15 -280.51)" d="M 0,595.276 H 841.89 V 0 H 0 Z"/></clipPath><clipPath id="g"><path transform="translate(-555.36 -275.71)" d="M 0,595.276 H 841.89 V 0 H 0 Z"/></clipPath><clipPath id="f"><path transform="translate(-558.44 -277.35)" d="M 0,595.276 H 841.89 V 0 H 0 Z"/></clipPath><clipPath id="e"><path transform="translate(-566.89 -279.15)" d="M 0,595.276 H 841.89 V 0 H 0 Z"/></clipPath><clipPath id="d"><path transform="translate(-568.21 -273.93)" d="M 0,595.276 H 841.89 V 0 H 0 Z"/></clipPath><clipPath id="b"><path transform="translate(-578.06 -279.05)" d="M 0,595.276 H 841.89 V 0 H 0 Z"/></clipPath><clipPath id="a"><path transform="translate(-585.83 -280.52)" d="M 0,595.276 H 841.89 V 0 H 0 Z"/></clipPath></defs><g transform="matrix(.26458 0 0 .26458 604 0)"><path d="m-1913.5 998.9 61.646-61.677h-174.46v-174.45l-61.658 61.664v174.46z" fill="#fcaf16"/><path d="m-1779.3 515.79-61.646 61.664h174.45v174.44l61.683-61.646v-174.46z" fill="#fcaf16"/><path transform="matrix(6.2382 0 0 -6.2382 -2103.2 607.45)" d="m0 0h-15.392v-0.577c2e-3 -5e-3 5e-3 -5e-3 8e-3 -7e-3h-8e-3c1.394-1.79 2.237-3.494 2.275-6.437v-38.761c0.018-0.361 0.12-0.592 0.439-0.742 0.419-0.197 0.741-0.01 1.324 0.568l9.079 9.082v29.93c0.053 2.899 0.891 4.585 2.275 6.36h-0.01c2e-3 2e-3 5e-3 2e-3 0.01 7e-3z" clip-path="url(#y)" fill="#01499a"/><path transform="matrix(6.2382 0 0 -6.2382 -1334.7 607.45)" d="m0 0h-15.397v-0.577c2e-3 -5e-3 4e-3 -5e-3 7e-3 -7e-3 1.346-1.729 2.179-3.372 2.268-6.14v-23.235c0-4.666-3.778-8.45-8.445-8.45-4.662 0-8.445 3.784-8.445 8.45v27.585c0 0.543-0.018 1.102-0.444 1.249-0.435 0.157-0.671 0.027-1.247-0.551v2e-3l-9.153-9.153v-18.371c0-10.652 8.637-19.289 19.289-19.289 10.654 0 19.292 8.637 19.292 19.289v22.04c0.012 3.029 0.858 4.756 2.275 6.574h-0.011c3e-3 2e-3 8e-3 2e-3 0.011 7e-3z" clip-path="url(#n)" fill="#01499a"/><path transform="matrix(6.2382 0 0 -6.2382 -1710.9 607.45)" d="m0 0h-15.395v-0.577c3e-3 -5e-3 5e-3 -5e-3 8e-3 -7e-3h-8e-3c1.417-1.818 2.265-3.545 2.276-6.574v-20.03l-15.227 24.509-12.508-12.508v-25.319c0-3.075-0.847-4.807-2.277-6.643v-0.576h15.395v0.576s-6e-3 4e-3 -8e-3 6e-3c-1.371 1.762-2.207 3.439-2.268 6.303v20.296l15.227-24.505 12.505 12.511v25.494c0.033 2.958 0.879 4.664 2.275 6.46h-3e-3c3e-3 2e-3 5e-3 2e-3 8e-3 7e-3z" clip-path="url(#c)" fill="#01499a"/><path transform="matrix(6.2382 0 0 -6.2382 -1049.1 610.35)" d="m0 0c-0.324 0.3-0.733 0.449-1.211 0.449h-4.021v-0.312c0.357-0.33 0.677-0.764 0.677-1.909v-21.346h5.081v21.909c0 0.485-0.177 0.896-0.526 1.209" clip-path="url(#an)" fill="#6e6e6c"/><path transform="matrix(6.2382 0 0 -6.2382 -1166.6 800.76)" d="m0 0v9.099h-5.073v-9.535c0-1.398 1.127-2.531 2.529-2.531h21.899v2.967z" clip-path="url(#am)" fill="#6e6e6c"/><path transform="matrix(6.2382 0 0 -6.2382 -1167.1 705.8)" d="m0 0c-2.603 0-4.707 2.854-4.707 6.378 0 3.519 2.104 6.376 4.707 6.376s4.708-2.857 4.708-6.376c0-3.524-2.105-6.378-4.708-6.378m0 15.725c-5.408 0-9.793-4.182-9.793-9.347 0-5.161 4.385-9.349 9.793-9.349s9.793 4.188 9.793 9.349c0 5.165-4.385 9.347-9.793 9.347" clip-path="url(#al)" fill="#6e6e6c"/><path transform="matrix(6.2382 0 0 -6.2382 -944.36 800.76)" d="m0 0v9.099h-5.073v-9.535c0-1.398 1.127-2.531 2.529-2.531h21.899v2.967z" clip-path="url(#ak)" fill="#6e6e6c"/><path transform="matrix(6.2382 0 0 -6.2382 -923.24 665.83)" d="m0 0c-0.643 1.394-0.899 2.899-1.001 4.151h7.684v2.961h-7.735v1.576c0 0.491-0.177 0.9-0.533 1.219-0.322 0.295-0.726 0.443-1.211 0.443h-3.882v-0.313c0.361-0.333 0.68-0.766 0.68-1.909v-1.016h-7.602v-2.961h7.537c-0.097-1.252-0.354-2.757-0.999-4.151-1.261-2.694-2.8-5.146-7.701-7.998l1.674-2.79c4.826 2.066 7.853 5.113 9.628 8.144 1.779-3.031 4.801-6.078 9.623-8.144l1.676 2.79c-4.9 2.852-6.579 5.304-7.838 7.998" clip-path="url(#aj)" fill="#6e6e6c"/><path transform="matrix(6.2382 0 0 -6.2382 -826.9 610.35)" d="m0 0c-0.324 0.3-0.733 0.449-1.211 0.449h-4.021v-0.312c0.363-0.33 0.68-0.764 0.68-1.909v-6.77h-6.931v-2.965h6.931v-11.611h5.078v21.909c0 0.485-0.177 0.896-0.526 1.209" clip-path="url(#ai)" fill="#6e6e6c"/><path transform="matrix(6.2382 0 0 -6.2382 -586.87 610.35)" d="m0 0c-0.338 0.305-0.741 0.449-1.214 0.449h-4.024v-0.312c0.36-0.33 0.677-0.764 0.677-1.909v-8.148h-2.775v8.711c0 0.493-0.178 0.896-0.522 1.209-0.338 0.305-0.74 0.449-1.219 0.449h-4.027v-0.312c0.36-0.33 0.677-0.764 0.677-1.909v-18.34c-1.711-0.891-4.47-1.024-5.802-1.024h-7.033v17.284h10.061v2.971h-15.153v-20.693c0-1.397 1.134-2.532 2.534-2.532h9.591c1.332 5e-3 4.091 0.129 5.802 1.031v-10.416h5.091v20.6h2.775v-20.6h5.083v32.282c0 0.493-0.179 0.896-0.522 1.209" clip-path="url(#ah)" fill="#6e6e6c"/><path transform="matrix(6.2382 0 0 -6.2382 -369.76 663.63)" d="m0 0v7.333c0 0.493-0.17 0.896-0.518 1.209-0.333 0.305-0.734 0.449-1.211 0.449h-4.027v-0.312c0.36-0.33 0.678-0.764 0.678-1.909v-16.941h5.078v7.206h5.716v2.965z" clip-path="url(#ag)" fill="#6e6e6c"/><path transform="matrix(6.2382 0 0 -6.2382 -490.91 705.61)" d="m0 0c-2.75 0-4.705 2.283-4.705 5.106 0 2.829 1.955 5.114 4.705 5.114 2.752 0 4.702-2.285 4.702-5.114 0-2.823-1.95-5.106-4.702-5.106m10.144 13.488h-7.743v1.576c0 0.491-0.172 0.9-0.528 1.219-0.327 0.295-0.726 0.443-1.211 0.443h-3.747v-0.313c0.36-0.333 0.678-0.767 0.678-1.909v-1.016h-7.742v-2.961h2.897c-1.579-1.437-2.549-3.331-2.549-5.423 0-4.461 4.39-8.077 9.801-8.077 5.408 0 9.795 3.616 9.795 8.077 0 2.092-0.972 3.986-2.546 5.423h2.895z" clip-path="url(#af)" fill="#6e6e6c"/><path transform="matrix(6.2382 0 0 -6.2382 -385.52 745.72)" d="m0 0h-21.184v-2.974h18.617v-8.816h5.093v9.261c0 1.399-1.134 2.529-2.526 2.529" clip-path="url(#ae)" fill="#6e6e6c"/><path transform="matrix(6.2382 0 0 -6.2382 -162.22 617.18)" d="m0 0h-22.971v-2.973h20.404v-18.512h5.093v18.959c0 1.396-1.134 2.526-2.526 2.526" clip-path="url(#ad)" fill="#6e6e6c"/><path transform="matrix(6.2382 0 0 -6.2382 -198.62 772.8)" d="m0 0v10.312c0 0.49-0.17 0.891-0.521 1.216-0.327 0.297-0.736 0.449-1.215 0.449h-4.028v-0.311c0.361-0.331 0.678-0.768 0.678-1.911v-9.755h-4.464v10.312c0 0.49-0.175 0.891-0.525 1.216-0.327 0.297-0.734 0.449-1.214 0.449h-4.037v-0.311c0.361-0.331 0.679-0.768 0.679-1.911v-9.755h-6.638v-2.957h33.812v2.957z" clip-path="url(#ac)" fill="#6e6e6c"/><path transform="matrix(6.2382 0 0 -6.2382 -1203.7 905.26)" d="m0 0v0.381c0.784 0.072 0.876 0.15 0.876 1.045v4.105c0 0.912-0.092 0.981-0.876 1.065v0.373h3.204v-0.373c-0.792-0.084-0.884-0.153-0.884-1.065v-4.105c0-0.895 0.092-0.973 0.884-1.045v-0.381z" clip-path="url(#ab)" fill="#6e6e6c"/><path transform="matrix(6.2382 0 0 -6.2382 -1132.7 864.12)" d="m0 0c-0.576-0.031-0.805-0.176-0.858-0.666-0.031-0.338-0.094-0.838-0.094-1.777v-4.258h-0.521l-4.453 5.334h-0.033v-2.404c0-0.946 0.056-1.42 0.084-1.743 0.053-0.468 0.238-0.67 1.033-0.701v-0.381h-2.626v0.381c0.595 0.037 0.844 0.215 0.887 0.672 0.046 0.352 0.109 0.826 0.109 1.772v2.236c0 0.701-0.015 0.896-0.226 1.146-0.196 0.256-0.434 0.344-0.886 0.389v0.373h1.978l4.09-4.705h0.043v1.889c0 0.939-0.055 1.439-0.084 1.752-0.052 0.464-0.279 0.646-1.063 0.691v0.373h2.62z" clip-path="url(#aa)" fill="#6e6e6c"/><path transform="matrix(6.2382 0 0 -6.2382 -1088.2 893.88)" d="m0 0c-0.14-0.514-0.411-1.326-0.602-1.701-0.285-0.069-1.267-0.279-1.988-0.279-2.848 0-4.04 1.861-4.04 3.562 0 2.186 1.692 3.723 4.256 3.723 0.865 0 1.66-0.229 1.947-0.287 0.099-0.592 0.162-1.08 0.249-1.766l-0.404-0.07c-0.35 1.279-1.17 1.654-1.998 1.654-1.554 0-2.401-1.475-2.401-3.049 0-1.965 1.047-3.266 2.507-3.266 0.889 0 1.555 0.569 2.095 1.651z" clip-path="url(#z)" fill="#6e6e6c"/><path transform="matrix(6.2382 0 0 -6.2382 -1037.2 864.12)" d="m0 0c-0.843-0.084-0.903-0.141-0.903-1.055v-4.121c0-0.89 0.089-0.967 0.903-1.039v-0.381h-3.275v0.381c0.863 0.072 0.939 0.151 0.939 1.045v1.996h-2.927v-1.996c0-0.896 0.086-0.973 0.878-1.045v-0.381h-3.188v0.381c0.776 0.072 0.876 0.149 0.876 1.045v4.115c0 0.914-0.1 0.971-0.92 1.055v0.373h3.212v-0.373c-0.772-0.084-0.858-0.141-0.858-1.055v-1.576h2.927v1.576c0 0.914-0.086 0.971-0.881 1.055v0.373h3.217z" clip-path="url(#x)" fill="#6e6e6c"/><path transform="matrix(6.2382 0 0 -6.2382 -996.63 894.15)" d="m0 0c-0.059-0.48-0.287-1.455-0.371-1.781h-5.469v0.381c0.916 0.072 1.013 0.148 1.013 1.045v4.115c0 0.937-0.097 0.988-0.863 1.054v0.374h5.043c0.012-0.194 0.068-0.944 0.114-1.604l-0.392-0.059c-0.098 0.377-0.246 0.725-0.436 0.92-0.175 0.194-0.47 0.274-1.072 0.274h-0.507c-0.399 0-0.445-0.022-0.445-0.381v-2.266h0.721c0.892 0 1.039 0.051 1.186 0.801h0.383v-2.162h-0.383c-0.147 0.766-0.279 0.809-1.186 0.809h-0.721v-1.854c0-0.496 0.046-0.766 0.259-0.881 0.195-0.078 0.554-0.101 0.957-0.101 0.554 0 0.935 0.076 1.199 0.343 0.205 0.239 0.391 0.578 0.599 1.041z" clip-path="url(#w)" fill="#6e6e6c"/><path transform="matrix(6.2382 0 0 -6.2382 -970.94 863.61)" d="m0 0c-1.071 0-1.917-1.146-1.917-3.006 0-1.822 0.808-3.377 2.176-3.377 1.026 0 1.844 0.998 1.844 2.963 0 2.131-0.872 3.42-2.098 3.42zm0.206 0.439c1.944 0 3.536-1.433 3.536-3.558 0-2.307-1.66-3.715-3.669-3.715-2.147 0-3.636 1.576-3.636 3.635 0 1.842 1.303 3.638 3.761 3.638z" clip-path="url(#v)" fill="#6e6e6c"/><path transform="matrix(6.2382 0 0 -6.2382 -897.3 864.12)" d="m0 0c-0.568-0.031-0.802-0.176-0.851-0.666-0.03-0.338-0.088-0.838-0.088-1.777v-4.258h-0.521l-4.456 5.334h-0.035v-2.404c0-0.946 0.051-1.42 0.092-1.743 0.047-0.468 0.23-0.67 1.025-0.701v-0.381h-2.628v0.381c0.6 0.037 0.846 0.215 0.892 0.672 0.04 0.352 0.111 0.826 0.111 1.772v2.236c0 0.701-0.028 0.896-0.231 1.146-0.191 0.256-0.442 0.344-0.891 0.389v0.373h1.985l4.091-4.705h0.045v1.889c0 0.939-0.065 1.439-0.089 1.752-0.053 0.464-0.276 0.646-1.055 0.691v0.373h2.604z" clip-path="url(#u)" fill="#6e6e6c"/><path transform="matrix(6.2382 0 0 -6.2382 -833.31 864.12)" d="m0 0c-0.581-0.031-0.805-0.176-0.857-0.666-0.034-0.338-0.102-0.838-0.102-1.777v-4.258h-0.506l-4.458 5.334h-0.036v-2.404c0-0.946 0.054-1.42 0.089-1.743 0.054-0.468 0.231-0.67 1.023-0.701v-0.381h-2.623v0.381c0.6 0.037 0.854 0.215 0.892 0.672 0.04 0.352 0.109 0.826 0.109 1.772v2.236c0 0.701-0.018 0.896-0.228 1.146-0.199 0.256-0.443 0.344-0.889 0.389v0.373h1.982l4.096-4.705h0.043v1.889c0 0.939-0.068 1.439-0.091 1.752-0.046 0.464-0.277 0.646-1.056 0.691v0.373h2.612z" clip-path="url(#t)" fill="#6e6e6c"/><path transform="matrix(6.2382 0 0 -6.2382 -814.23 873.04)" d="m0 0h-0.032c-0.298-0.775-0.567-1.555-0.841-2.314h1.666zm0.914-5.166v0.381c0.635 0.096 0.689 0.217 0.516 0.697-0.11 0.322-0.269 0.772-0.434 1.213h-2.057c-0.117-0.338-0.249-0.719-0.383-1.158-0.148-0.508-0.135-0.656 0.655-0.752v-0.381h-2.399l7e-3 0.381c0.713 0.084 0.845 0.199 1.194 1.097l2.193 5.512 0.551 0.139c0.678-1.885 1.344-3.736 2.039-5.582 0.363-0.949 0.513-1.082 1.178-1.166v-0.381z" clip-path="url(#s)" fill="#6e6e6c"/><path transform="matrix(6.2382 0 0 -6.2382 -754.29 873.27)" d="m0 0c-0.125 0.563-0.27 0.914-0.465 1.111-0.185 0.19-0.46 0.26-1.092 0.26h-0.482v-5.074c0-0.897 0.097-0.973 1.046-1.045v-0.381h-3.493v0.381c0.903 0.072 1.009 0.148 1.009 1.045v5.074h-0.365c-0.879 0-1.076-0.121-1.231-0.293-0.173-0.182-0.315-0.547-0.452-1.08h-0.381c0.038 0.777 0.101 1.563 0.127 2.109h0.254c0.17-0.246 0.309-0.267 0.607-0.267h4.309c0.296 0 0.439 0.058 0.617 0.267h0.271c0-0.449 0.056-1.396 0.107-2.078z" clip-path="url(#r)" fill="#6e6e6c"/><path transform="matrix(6.2382 0 0 -6.2382 -747.64 905.26)" d="m0 0v0.381c0.789 0.072 0.886 0.15 0.886 1.045v4.105c0 0.912-0.097 0.981-0.886 1.065v0.373h3.209v-0.373c-0.792-0.084-0.886-0.153-0.886-1.065v-4.105c0-0.895 0.094-0.973 0.886-1.045v-0.381z" clip-path="url(#q)" fill="#6e6e6c"/><path transform="matrix(6.2382 0 0 -6.2382 -700.63 863.61)" d="m0 0c-1.072 0-1.92-1.146-1.92-3.006 0-1.822 0.82-3.377 2.191-3.377 1.018 0 1.846 0.998 1.846 2.963 0 2.131-0.876 3.42-2.11 3.42zm0.213 0.439c1.945 0 3.547-1.433 3.547-3.558 0-2.307-1.671-3.715-3.684-3.715-2.136 0-3.626 1.576-3.626 3.635 0 1.842 1.297 3.638 3.758 3.638z" clip-path="url(#p)" fill="#6e6e6c"/><path transform="matrix(6.2382 0 0 -6.2382 -626.91 864.12)" d="m0 0c-0.579-0.031-0.803-0.176-0.854-0.666-0.04-0.338-0.106-0.838-0.106-1.777v-4.258h-0.513l-4.453 5.334h-0.028v-2.404c0-0.946 0.043-1.42 0.089-1.743 0.046-0.468 0.231-0.67 1.02-0.701v-0.381h-2.625v0.381c0.607 0.037 0.853 0.215 0.894 0.672 0.041 0.352 0.106 0.826 0.106 1.772v2.236c0 0.701-0.02 0.896-0.225 1.146-0.194 0.256-0.443 0.344-0.889 0.389v0.373h1.982l4.091-4.705h0.038v1.889c0 0.939-0.06 1.439-0.081 1.752-0.05 0.464-0.274 0.646-1.058 0.691v0.373h2.612z" clip-path="url(#o)" fill="#6e6e6c"/><path transform="matrix(6.2382 0 0 -6.2382 -607.83 873.04)" d="m0 0h-0.035c-0.295-0.775-0.569-1.555-0.846-2.314h1.673zm0.917-5.166v0.381c0.622 0.096 0.683 0.217 0.51 0.697-0.104 0.322-0.267 0.772-0.429 1.213h-2.061c-0.113-0.338-0.245-0.719-0.376-1.158-0.158-0.508-0.132-0.656 0.652-0.752v-0.381h-2.404l9e-3 0.381c0.711 0.084 0.843 0.199 1.192 1.097l2.198 5.512 0.544 0.139c0.69-1.885 1.351-3.736 2.054-5.582 0.36-0.949 0.5-1.082 1.173-1.166v-0.381z" clip-path="url(#m)" fill="#6e6e6c"/><path transform="matrix(6.2382 0 0 -6.2382 -545.12 893.92)" d="m0 0c-0.089-0.449-0.314-1.523-0.4-1.818h-5.211v0.38c0.932 0.073 1.034 0.151 1.034 1.045v4.106c0 0.924-0.102 0.98-0.922 1.064v0.373h3.275v-0.373c-0.817-0.084-0.917-0.14-0.917-1.064v-4.178c0-0.502 0.041-0.695 0.27-0.789 0.18-0.076 0.472-0.1 0.808-0.1 0.444 0 0.832 0.077 1.091 0.362 0.201 0.226 0.386 0.574 0.594 1.107z" clip-path="url(#l)" fill="#6e6e6c"/><path transform="matrix(6.2382 0 0 -6.2382 -482.09 864.12)" d="m0 0c-0.584-0.031-0.849-0.262-0.904-0.639-0.059-0.324-0.094-0.728-0.094-1.482v-1.174c0-1.135-0.17-2.035-0.772-2.676-0.493-0.509-1.226-0.781-1.988-0.781-0.701 0-1.379 0.147-1.891 0.559-0.608 0.468-0.889 1.263-0.889 2.517v2.512c0 1.012-0.109 1.08-0.897 1.164v0.373h3.222v-0.373c-0.781-0.084-0.889-0.152-0.889-1.164v-2.32c0-1.608 0.582-2.545 1.735-2.545 1.277 0 1.833 0.97 1.833 2.758v1.15c0 0.754-0.061 1.166-0.112 1.482-0.047 0.377-0.304 0.594-1.031 0.639v0.373h2.677z" clip-path="url(#k)" fill="#6e6e6c"/><path transform="matrix(6.2382 0 0 -6.2382 -433.36 864.12)" d="m0 0c-0.571-0.031-0.797-0.176-0.854-0.666-0.032-0.338-0.098-0.838-0.098-1.777v-4.258h-0.516l-4.458 5.334h-0.025v-2.404c0-0.946 0.053-1.42 0.081-1.743 0.053-0.468 0.238-0.67 1.03-0.701v-0.381h-2.617v0.381c0.589 0.037 0.84 0.215 0.886 0.672 0.043 0.352 0.096 0.826 0.096 1.772v2.236c0 0.701-0.012 0.896-0.22 1.146-0.191 0.256-0.44 0.344-0.887 0.389v0.373h1.983l4.091-4.705h0.04v1.889c0 0.939-0.063 1.439-0.089 1.752-0.052 0.464-0.279 0.646-1.053 0.691v0.373h2.61z" clip-path="url(#j)" fill="#6e6e6c"/><path transform="matrix(6.2382 0 0 -6.2382 -429.75 905.26)" d="m0 0v0.381c0.797 0.072 0.894 0.15 0.894 1.045v4.105c0 0.912-0.097 0.981-0.894 1.065v0.373h3.214v-0.373c-0.789-0.084-0.889-0.153-0.889-1.065v-4.105c0-0.895 0.1-0.973 0.889-1.045v-0.381z" clip-path="url(#i)" fill="#6e6e6c"/><path transform="matrix(6.2382 0 0 -6.2382 -360.1 864.22)" d="m0 0c-0.688-0.074-0.892-0.211-1.313-1.227-0.363-0.822-1.333-3.263-2.168-5.464h-0.539c-0.725 1.961-1.726 4.537-2.18 5.642-0.325 0.838-0.503 0.981-1.158 1.049v0.389h3.189v-0.389c-0.777-0.117-0.777-0.232-0.617-0.691 0.309-0.862 1.158-3.038 1.541-4.039h0.03c0.592 1.564 1.049 2.787 1.352 3.724 0.233 0.752 0.233 0.904-0.641 1.006v0.389h2.504z" clip-path="url(#h)" fill="#6e6e6c"/><path transform="matrix(6.2382 0 0 -6.2382 -321.33 894.15)" d="m0 0c-0.063-0.48-0.297-1.455-0.376-1.781h-5.467v0.381c0.909 0.072 1.016 0.148 1.016 1.045v4.115c0 0.937-0.107 0.988-0.865 1.054v0.374h5.045c9e-3 -0.194 0.063-0.944 0.109-1.604l-0.387-0.059c-0.108 0.377-0.248 0.725-0.441 0.92-0.186 0.194-0.47 0.274-1.067 0.274h-0.515c-0.396 0-0.442-0.022-0.442-0.381v-2.266h0.721c0.894 0 1.036 0.051 1.189 0.801h0.383v-2.162h-0.383c-0.153 0.766-0.283 0.809-1.189 0.809h-0.721v-1.854c0-0.496 0.046-0.766 0.254-0.881 0.196-0.078 0.559-0.101 0.965-0.101 0.548 0 0.935 0.076 1.191 0.343 0.206 0.239 0.396 0.578 0.604 1.041z" clip-path="url(#g)" fill="#6e6e6c"/><path transform="matrix(6.2382 0 0 -6.2382 -302.1 883.92)" d="m0 0c0.444 0 0.808 0.078 1.044 0.285 0.368 0.305 0.513 0.733 0.513 1.281 0 1.131-0.661 1.559-1.254 1.559-0.27 0-0.419-0.047-0.489-0.117-0.073-0.061-0.09-0.168-0.09-0.399v-2.609zm4.027-3.518c-0.063 0-0.195 0.01-0.32 0.01-1.351 0.065-1.769 0.365-2.193 1.041-0.285 0.446-0.57 1.024-0.889 1.574-0.168 0.336-0.363 0.455-0.703 0.475h-0.198v-1.562c0-0.877 0.101-0.989 0.901-1.061v-0.381h-3.232v0.381c0.804 0.072 0.923 0.184 0.923 1.061v4.113c0 0.855-0.101 0.957-0.878 1.041v0.373h3.006c0.935 0 1.481-0.1 1.912-0.404 0.427-0.28 0.724-0.764 0.724-1.436 0-0.939-0.614-1.443-1.338-1.736 0.153-0.321 0.561-1.032 0.871-1.524 0.383-0.592 0.612-0.935 0.827-1.154 0.232-0.25 0.399-0.379 0.648-0.463z" clip-path="url(#f)" fill="#6e6e6c"/><path transform="matrix(6.2382 0 0 -6.2382 -249.41 872.7)" d="m0 0c-0.223 0.674-0.619 1.469-1.495 1.469-0.602 0-1.046-0.449-1.046-1.057 0-0.586 0.391-0.937 1.335-1.404 1.117-0.557 1.892-1.156 1.892-2.211 0-1.215-1.039-2.174-2.603-2.174-0.381 0-0.759 0.051-1.076 0.147-0.305 0.082-0.505 0.169-0.663 0.238-0.094 0.269-0.229 1.172-0.302 1.822l0.371 0.115c0.218-0.687 0.845-1.886 1.876-1.886 0.652 0 1.066 0.451 1.066 1.125 0 0.632-0.466 1.029-1.272 1.461-1.102 0.556-1.866 1.136-1.866 2.162 0 1.179 0.934 2.101 2.463 2.101 0.675 0 1.285-0.211 1.485-0.287 0.044-0.398 0.117-0.869 0.203-1.535z" clip-path="url(#e)" fill="#6e6e6c"/><path transform="matrix(6.2382 0 0 -6.2382 -241.2 905.26)" d="m0 0v0.381c0.787 0.072 0.876 0.15 0.876 1.045v4.105c0 0.912-0.089 0.981-0.876 1.065v0.373h3.207v-0.373c-0.792-0.084-0.889-0.153-0.889-1.065v-4.105c0-0.895 0.097-0.973 0.889-1.045v-0.381z" clip-path="url(#d)" fill="#6e6e6c"/><path transform="matrix(6.2382 0 0 -6.2382 -179.76 873.27)" d="m0 0c-0.13 0.563-0.282 0.914-0.476 1.111-0.182 0.19-0.459 0.26-1.076 0.26h-0.49v-5.074c0-0.897 0.104-0.973 1.044-1.045v-0.381h-3.486v0.381c0.888 0.072 1.003 0.148 1.003 1.045v5.074h-0.366c-0.879 0-1.072-0.121-1.231-0.293-0.173-0.182-0.316-0.547-0.45-1.08h-0.386c0.043 0.777 0.104 1.563 0.13 2.109h0.256c0.173-0.246 0.312-0.267 0.609-0.267h4.304c0.292 0 0.442 0.058 0.625 0.267h0.261c8e-3 -0.449 0.059-1.396 0.112-2.078z" clip-path="url(#b)" fill="#6e6e6c"/><path transform="matrix(6.2382 0 0 -6.2382 -131.25 864.12)" d="m0 0c-0.686-0.084-0.908-0.27-1.284-0.904-0.397-0.631-0.681-1.092-1.198-2.098-0.151-0.293-0.197-0.412-0.197-0.742v-1.373c0-0.949 0.087-1.026 1.036-1.11v-0.369h-3.478v0.369c0.912 0.075 1.001 0.161 1.001 1.11v1.195c0 0.262-0.041 0.371-0.133 0.582-0.292 0.586-0.692 1.301-1.33 2.428-0.398 0.705-0.576 0.822-1.176 0.912v0.373h3.075v-0.373c-0.706-0.096-0.701-0.24-0.505-0.623 0.376-0.744 0.802-1.533 1.216-2.326 0.31 0.607 0.859 1.615 1.118 2.265 0.174 0.436 0.165 0.577-0.627 0.684v0.373h2.482z" clip-path="url(#a)" fill="#6e6e6c"/></g></svg>
