<svg xmlns="http://www.w3.org/2000/svg" xml:space="preserve" width="594mm" height="420mm" viewBox="0 0 594 420"><defs><clipPath id="a" clipPathUnits="userSpaceOnUse"><path d="M-1096.493 855.647h2834.646v-2148.661h-2834.646Z"/></clipPath><clipPath id="b" clipPathUnits="userSpaceOnUse"><path d="M-1279.587 855.546H1555.06v-2148.66h-2834.646Z"/></clipPath><clipPath id="c" clipPathUnits="userSpaceOnUse"><path d="M-1532.169 855.637h2834.646v-2148.66h-2834.646Z"/></clipPath><clipPath id="d" clipPathUnits="userSpaceOnUse"><path d="M-1933.106 946.172H901.54V-1202.49h-2834.646Z"/></clipPath><clipPath id="e" clipPathUnits="userSpaceOnUse"><path d="M-817.898 896.685h2834.646v-2148.662H-817.898Z"/></clipPath><clipPath id="f" clipPathUnits="userSpaceOnUse"><path d="M-1875.124 977.846H959.522v-2148.661h-2834.646Z"/></clipPath><clipPath id="g" clipPathUnits="userSpaceOnUse"><path d="M-1701.048 855.153h2834.646v-2148.661h-2834.646Z"/></clipPath><clipPath id="h" clipPathUnits="userSpaceOnUse"><path d="M-1345.599 855.373h2834.646v-2148.66h-2834.646Z"/></clipPath><clipPath id="i" clipPathUnits="userSpaceOnUse"><path d="M-2092.297 825.677H742.349v-2148.66h-2834.646Z"/></clipPath><clipPath id="j" clipPathUnits="userSpaceOnUse"><path d="M-2087.91 836.5H746.736v-2148.66H-2087.91Z"/></clipPath></defs><path d="M0 0c-7.927-10.363-15.257-19.894-22.521-29.475-1.844-2.432-4.394-1.802-6.767-1.806-19.447-.039-38.895-.022-58.342-.023-7.153-.001-14.307.073-21.458-.05-2.657-.045-5.392-.237-7.94-.923-4.073-1.095-5.88-3.886-5.775-7.949.098-3.771 1.835-6.41 5.629-7.393 2.77-.717 5.73-.949 8.608-.961 19.446-.079 38.895.112 58.34-.114 8.239-.096 16.474-.92 24.699-1.562 1.974-.154 3.928-.813 5.845-1.393 17.17-5.199 25.341-17.703 23.438-35.598-1.72-16.178-10.156-27.048-25.81-31.48-7.236-2.048-14.892-3.568-22.373-3.639-37.997-.361-75.999-.17-113.999-.159-1.259.001-2.517.155-4.549.289 1.38 2.137 2.212 3.634 3.239 4.981 5.423 7.106 11.04 14.07 16.29 21.301 2.589 3.566 5.428 5.09 10.014 5.051 27.493-.233 54.988-.13 82.482-.096 3.348.004 6.726.035 10.035.471 5.308.7 7.781 3.478 7.897 8.271.125 5.205-2.285 8.104-7.944 8.895-3.302.461-6.687.443-10.035.449-21.235.036-42.474-.21-63.704.15-6.848.116-13.872 1.053-20.463 2.885-14.616 4.062-23.441 15.045-24.196 28.715-.962 17.438 5.677 29.388 20.134 35.963 8.468 3.851 17.523 5.559 26.712 5.607C-76.08.596-39.644.485-3.208.47-2.567.47-1.926.289 0 0" clip-path="url(#a)" style="fill:#fff;fill-opacity:1;fill-rule:nonzero;stroke:none" transform="matrix(.35278 0 0 -.35278 191.39 170.767)"/><path d="M0 0c-1.267-1.906-2.135-3.376-3.161-4.727-5.675-7.477-11.565-14.8-17.007-22.442-2.367-3.323-5.047-4.33-8.966-4.308-25.262.143-50.526.089-75.789.054-3.348-.005-6.737.017-10.033-.475-4.964-.74-7.385-3.562-7.479-7.969-.097-4.517 2.054-7.185 7.128-8.206 2.599-.523 5.317-.607 7.983-.625 23.47-.157 46.94-.224 70.41-.386 8.58-.06 16.896-1.523 24.647-5.413C-2.23-59.535 3.287-67.66 3.966-78.886c.201-3.329.068-6.711-.261-10.034-1.356-13.719-8.562-23.159-21.21-28.529-8.361-3.55-17.217-5.052-26.157-5.097-38.677-.194-77.354-.077-116.032-.058-.637 0-1.273.189-2.521.386.81 1.505 1.336 2.884 2.193 4.011 5.819 7.649 11.826 15.157 17.515 22.9 2.373 3.229 5.115 4.289 9.063 4.267 27.498-.151 54.997-.096 82.496-.058 3.57.005 7.179.019 10.702.51 5.184.723 7.694 3.725 7.712 8.491.018 4.844-2.335 7.73-7.614 8.563-3.289.519-6.681.511-10.028.517-21.239.042-42.478.021-63.717.022-7.874.001-15.612.963-23.036 3.68-12.926 4.731-20.801 13.649-21.88 27.658-1.2 15.568 3.657 28.179 18.435 35.572C-131.387-1.589-121.709.25-111.84.306-75.623.511-39.405.39-3.187.375-2.366.375-1.545.188 0 0" clip-path="url(#b)" style="fill:#fff;fill-opacity:1;fill-rule:nonzero;stroke:none" transform="matrix(.35278 0 0 -.35278 255.982 170.732)"/><path d="M0 0c-7.823-10.258-15.138-19.777-22.355-29.368-1.642-2.183-3.826-1.94-6.038-1.941-14.308-.005-28.617-.003-42.925-.004-12.073-.001-24.146.074-36.217-.051-3.318-.034-6.728-.284-9.917-1.118-3.763-.984-5.361-3.724-5.342-7.543.019-3.739 1.761-6.544 5.429-7.537 2.76-.748 5.723-1.012 8.597-1.024 19.45-.085 38.903.131 58.351-.125 8.683-.114 17.43-.597 26.005-1.876 4.941-.737 9.903-2.848 14.309-5.316 7.845-4.394 12.654-11.386 13.366-20.484.414-5.298.43-10.78-.456-15.996-2.025-11.935-9.223-20.046-20.269-24.826-8.338-3.609-17.196-5.184-26.13-5.235-38.676-.22-77.354-.095-116.031-.079-.825 0-1.649.192-3.179.382 1.05 1.737 1.697 3.07 2.578 4.225 5.695 7.462 11.59 14.777 17.103 22.371 2.502 3.447 5.327 4.641 9.575 4.612 27.497-.186 54.997-.109 82.496-.077 3.348.004 6.725.025 10.038.44 5.285.662 7.924 3.491 8.113 8.143.208 5.143-2.264 8.206-7.844 9.03-3.297.487-6.686.467-10.033.473-21.239.038-42.478.016-63.717.022-7.877.002-15.618.988-23.024 3.755-12.894 4.817-20.657 13.813-21.669 27.828-1.106 15.311 3.678 27.738 18.081 35.143 8.942 4.598 18.633 6.495 28.492 6.557C-75.949.609-39.284.462-2.619.444-2.18.444-1.742.302 0 0" clip-path="url(#c)" style="fill:#fff;fill-opacity:1;fill-rule:nonzero;stroke:none" transform="matrix(.35278 0 0 -.35278 345.088 170.764)"/><path d="M0 0v-30.654c-5.219-1.61-28.18-1.97-38.047-.646-.012 20.263-.012 40.667.002 61.944h7.703c31.728.001 63.456.012 95.184-.009 5.84-.005 11.628.225 17.057 2.701 7.646 3.487 10.487 10.744 6.899 17.605-1.884 3.6-5.018 5.913-8.834 6.621-5.01.929-10.151 1.567-15.239 1.589-31.281.14-62.562.07-93.844.071h-8.08c1.433 2.293 2.115 3.614 3.007 4.773 5.996 7.788 12.127 15.475 18.011 23.347 1.902 2.545 3.892 3.761 7.191 3.745 26.589-.126 53.181.15 79.766-.176 12.097-.148 23.972-2.252 35.109-7.489 23.747-11.168 31.009-39.039 15.707-60.379-4.748-6.62-11.285-10.655-18.759-13.424a112.69 112.69 0 0 1-3.687-1.427c-.169-.07-.248-.36-.682-1.037 13.119-11.746 25.019-24.825 36.53-39.166h-5.033c-12.959 0-25.92.109-38.877-.071-3.461-.048-5.811.994-8.007 3.689-6.913 8.484-14.121 16.726-21.113 25.147-1.942 2.339-3.84 3.952-7.23 3.917C37.531.494 20.326.566 3.122.53 2.469.529 1.817.317 0 0" clip-path="url(#d)" style="fill:#fff;fill-opacity:1;fill-rule:nonzero;stroke:none" transform="matrix(.35278 0 0 -.35278 486.53 202.702)"/><path d="M0 0c-1.635-2.161-3.005-3.874-4.271-5.661-16.658-23.51-33.387-46.971-49.865-70.608-2.727-3.911-5.634-5.504-10.413-5.339-10.266.357-20.553.11-30.831.11h-6.808c1.295 2.266 2.009 3.8 2.971 5.157A101980.86 101980.86 0 0 0-25.918 26.943c1.68 2.364 3.513 4.625 5.36 6.863 10.419 12.624 31.723 13.503 42.316-.093 6.854-8.798 13.063-18.105 19.429-27.276 18.724-26.971 37.384-53.986 56.055-80.994 1.257-1.818 2.392-3.72 3.485-5.429-.232-.506-.296-.729-.425-.903-.117-.158-.305-.376-.461-.376-45.352-.088-90.704-.16-136.056-.219-1.048-.002-2.097.156-3.91.3 1.172 2.023 1.9 3.558 2.874 4.917 5.204 7.262 10.666 14.35 15.632 21.77 2.439 3.645 5.304 4.688 9.512 4.606 12.731-.249 25.471-.09 38.207-.09h6.76C31.578-45.19 14.631-19.477 0 0" clip-path="url(#e)" style="fill:#fff;fill-opacity:1;fill-rule:nonzero;stroke:none" transform="matrix(.35278 0 0 -.35278 93.109 185.244)"/><path d="M0 0h-141.75c1.045 1.85 1.658 3.213 2.513 4.402 5.475 7.619 11.171 15.086 16.434 22.848 2.199 3.243 4.803 4.034 8.44 3.991 13.183-.155 26.37-.061 39.555-.061h7.558l-34.35 50.314c-5.215-7.324-10.011-14.027-14.774-20.753-13.169-18.597-26.44-37.124-39.393-55.87-2.737-3.962-5.67-5.478-10.438-5.315-10.268.349-20.556.107-30.837.107h-6.769c1.348 2.347 2.072 3.886 3.04 5.252 24.156 34.087 48.332 68.16 72.528 102.218 1.81 2.547 3.766 4.993 5.717 7.436 10.652 13.345 32.658 13.822 43.201-.323 5.336-7.16 10.484-14.465 15.571-21.804C-44.026 63.984-24.355 35.487-4.671 7-3.295 5.008-1.982 2.974 0 0" clip-path="url(#f)" style="fill:#fff;fill-opacity:1;fill-rule:nonzero;stroke:none" transform="matrix(.35278 0 0 -.35278 466.075 213.876)"/><path d="M0 0c-2.418-3.221-3.959-5.312-5.54-7.372-4.762-6.208-9.756-12.252-14.235-18.657-2.953-4.223-6.234-6.169-11.615-5.905-9.814.481-19.668.136-29.505.136h-7.612c-.117-15.627-.042-30.744-.056-45.859-.013-14.893-.003-29.786-.003-45.019h-37.936c-.049 15.067-.018 29.949-.023 44.83-.006 14.958-.001 29.916-.001 45.657-18.781.955-37.226-.051-56.29.589.618 1.479.871 2.729 1.566 3.644 6.356 8.365 12.916 16.578 19.128 25.047 2.091 2.85 4.627 2.934 7.589 2.931C-101.443-.013-68.353 0-35.263 0Z" clip-path="url(#g)" style="fill:#fff;fill-opacity:1;fill-rule:nonzero;stroke:none" transform="matrix(.35278 0 0 -.35278 404.665 170.593)"/><path d="M0 0v-121.653c-5.027-1.45-30.287-1.663-37.579-.296V0Z" clip-path="url(#h)" style="fill:#fff;fill-opacity:1;fill-rule:nonzero;stroke:none" transform="matrix(.35278 0 0 -.35278 279.27 170.67)"/><path d="M0 0c-11.194 0-20.302-9.107-20.302-20.301 0-11.193 9.108-20.3 20.302-20.3 11.194 0 20.299 9.107 20.299 20.3C20.299-9.107 11.194 0 0 0m0-46.941c-14.691 0-26.641 11.951-26.641 26.64C-26.641-5.611-14.691 6.34 0 6.34c14.688 0 26.639-11.951 26.639-26.641 0-14.689-11.951-26.64-26.639-26.64" clip-path="url(#i)" style="fill:#fff;fill-opacity:1;fill-rule:nonzero;stroke:none" transform="matrix(.35278 0 0 -.35278 542.689 160.194)"/><path d="M0 0v-8.15h4.852c2.027 0 3.446.324 4.256.972.809.648 1.211 1.483 1.211 2.505v1.121c0 1.047-.381 1.9-1.151 2.56C8.402-.332 7.114 0 5.303 0Zm6.046-12.15H0v-10.803h-5.263V3.999H5.962c1.536 0 2.898-.187 4.092-.56 1.192-.374 2.192-.885 3.002-1.533a6.538 6.538 0 0 0 1.85-2.337c.425-.909.636-1.899.636-2.972v-1.382c0-1.421-.385-2.699-1.151-3.832-.766-1.135-1.921-2.012-3.453-2.636a684.048 684.048 0 0 0 2.897-5.85 715.244 715.244 0 0 1 2.898-5.85h-5.715z" clip-path="url(#j)" style="fill:#fff;fill-opacity:1;fill-rule:nonzero;stroke:none" transform="matrix(.35278 0 0 -.35278 541.141 164.013)"/></svg>